<svg width="21" height="20" viewBox="0 0 21 20" fill="none" xmlns="http://www.w3.org/2000/svg">
<path d="M16.333 9.16706H6.44967L9.47467 5.53373C9.61612 5.36355 9.68417 5.14414 9.66386 4.92379C9.64354 4.70343 9.53652 4.50017 9.36634 4.35873C9.19616 4.21728 8.97676 4.14923 8.7564 4.16954C8.53605 4.18986 8.33279 4.29688 8.19134 4.46706L4.02467 9.46706C3.99664 9.50683 3.97157 9.54861 3.94967 9.59206C3.94967 9.63373 3.94967 9.65873 3.89134 9.70039C3.85357 9.79594 3.83379 9.89765 3.83301 10.0004C3.83379 10.1031 3.85357 10.2048 3.89134 10.3004C3.89134 10.3421 3.89134 10.3671 3.94967 10.4087C3.97157 10.4522 3.99664 10.494 4.02467 10.5337L8.19134 15.5337C8.26969 15.6278 8.36781 15.7034 8.47871 15.7553C8.58962 15.8071 8.71058 15.8339 8.83301 15.8337C9.02772 15.8341 9.21641 15.7663 9.36634 15.6421C9.45072 15.5721 9.52047 15.4862 9.5716 15.3892C9.62273 15.2923 9.65422 15.1862 9.66429 15.077C9.67435 14.9679 9.66278 14.8578 9.63025 14.7532C9.59771 14.6485 9.54484 14.5513 9.47467 14.4671L6.44967 10.8337H16.333C16.554 10.8337 16.766 10.7459 16.9223 10.5896C17.0785 10.4334 17.1663 10.2214 17.1663 10.0004C17.1663 9.77938 17.0785 9.56742 16.9223 9.41114C16.766 9.25486 16.554 9.16706 16.333 9.16706Z" fill="#751300"/>
</svg>
