<svg width="20" height="24" viewBox="0 0 20 24" fill="none" xmlns="http://www.w3.org/2000/svg">
<path d="M10.0016 24C11.4518 24 12.6383 22.8923 12.6383 21.5385H7.36493C7.36493 22.1913 7.64272 22.8174 8.1372 23.279C8.63167 23.7407 9.30233 24 10.0016 24ZM17.9117 16.6154V10.4615C17.9117 6.68308 15.7496 3.52 11.9791 2.68308V1.84615C11.9791 0.824615 11.0959 0 10.0016 0C8.9074 0 8.0241 0.824615 8.0241 1.84615V2.68308C4.24044 3.52 2.09153 6.67077 2.09153 10.4615V16.6154L0.39086 18.2031C-0.439699 18.9785 0.140374 20.3077 1.3137 20.3077H18.6764C19.8497 20.3077 20.4429 18.9785 19.6124 18.2031L17.9117 16.6154Z" fill="#CC4516"/>
</svg>
