<svg width="81" height="80" viewBox="0 0 81 80" fill="none" xmlns="http://www.w3.org/2000/svg">
<g clip-path="url(#clip0_14_75)">
<path d="M76.608 65.3667C77.6255 65.3667 78.5212 65.3565 79.419 65.3687C80.4758 65.383 80.9876 65.8629 80.9897 66.888C81 70.738 81 74.59 80.9897 78.44C80.9876 79.5607 80.4696 79.9959 79.1961 79.9959C67.9788 79.9979 56.7615 79.9959 45.5442 79.9959C31.037 79.9959 16.5298 79.9959 2.02469 79.9959C0.361183 79.9959 -1.43948e-07 79.64 -1.43948e-07 78.0007C-1.43948e-07 74.3724 -0.00206405 70.742 -1.43948e-07 67.1137C0.00206376 65.806 0.445803 65.3708 1.76464 65.3647C2.60258 65.3606 3.44259 65.3647 4.34245 65.3647C4.35897 65.0433 4.38167 64.7769 4.38167 64.5084C4.3858 62.6515 4.37548 60.7967 4.38786 58.9398C4.39405 57.8945 4.88526 57.4124 5.9234 57.384C6.11948 57.3779 6.31761 57.3819 6.51368 57.3819C29.1733 57.3819 51.8329 57.3819 74.4925 57.3819C76.2716 57.3819 76.6018 57.7074 76.6039 59.4585C76.608 61.3967 76.608 63.3308 76.608 65.3667ZM73.8692 60.1052C51.5811 60.1052 29.359 60.1052 7.12872 60.1052C7.12872 61.8706 7.12872 63.5769 7.12872 65.2691C7.21541 65.3077 7.26288 65.3504 7.31241 65.3504C8.914 65.3586 10.5177 65.3606 12.1192 65.3687C13.2461 65.3748 13.8632 65.867 13.8405 66.7354C13.8178 67.5693 13.2214 68.0249 12.1275 68.0269C9.28757 68.031 6.44764 68.0289 3.6077 68.0289C3.31463 68.0289 3.01949 68.0289 2.75118 68.0289C2.75118 71.2037 2.75118 74.2402 2.75118 77.2848C27.9494 77.2848 53.096 77.2848 78.2302 77.2848C78.2302 74.1731 78.2302 71.1163 78.2302 68.0289C77.8009 68.0289 77.4356 68.0289 77.0703 68.0289C57.5272 68.0289 37.9862 68.0289 18.443 68.0289C17.0148 68.0289 16.3502 67.5876 16.375 66.6622C16.4018 65.7673 17.0313 65.3687 18.4307 65.3687C36.5662 65.3687 54.7038 65.3687 72.8393 65.3687C73.1695 65.3687 73.4977 65.3687 73.8671 65.3687C73.8692 63.5769 73.8692 61.8706 73.8692 60.1052Z" fill="#751300"/>
<path d="M14.9344 14.558C14.9344 15.0604 14.9344 15.4163 14.9344 15.7722C14.9344 28.4632 14.9344 41.1562 14.9323 53.8472C14.9323 54.2337 14.9385 54.6302 14.858 55.0045C14.7156 55.6634 14.2182 55.9949 13.5722 55.9888C12.9262 55.9848 12.4453 55.6431 12.3009 54.9821C12.2369 54.6872 12.2348 54.376 12.2348 54.073C12.2328 40.66 12.2307 27.249 12.2328 13.836C12.2328 12.2517 12.6022 11.8978 14.2368 11.8958C17.1614 11.8937 20.0859 11.8795 23.0105 11.908C23.6111 11.9141 23.8835 11.727 24.1002 11.1636C26.7441 4.36254 33.1938 -0.00812391 40.5206 1.13373e-05C47.8207 0.00814659 54.2497 4.36661 56.8791 11.1311C57.1103 11.7249 57.3931 11.9202 58.0287 11.9121C61.0379 11.8795 64.0471 11.8937 67.0562 11.8978C68.5113 11.8998 68.9303 12.3005 68.9303 13.716C68.9344 27.2104 68.9323 40.7068 68.9303 54.2011C68.9303 54.4228 68.9261 54.6465 68.889 54.8641C68.7652 55.6065 68.2719 55.999 67.5454 55.9848C66.8602 55.9726 66.3793 55.5861 66.2761 54.8784C66.2245 54.5245 66.2307 54.1604 66.2307 53.8005C66.2286 41.1095 66.2286 28.4164 66.2286 15.7254C66.2286 15.3716 66.2286 15.0156 66.2286 14.556C65.8282 14.556 65.5269 14.556 65.2256 14.556C62.3567 14.556 59.4879 14.5601 56.6212 14.554C55.3911 14.5519 55.1124 14.3364 54.7513 13.1852C52.7451 6.81328 47.1004 2.65007 40.4752 2.66024C33.8645 2.66837 28.228 6.84786 26.226 13.2279C25.8814 14.3282 25.5924 14.5519 24.4119 14.556C21.6008 14.5641 18.7877 14.558 15.9746 14.558C15.6712 14.558 15.3678 14.558 14.9344 14.558Z" fill="#751300"/>
<path d="M45.5008 15.941C47.5586 15.941 49.4924 15.941 51.4263 15.941C51.7916 15.941 52.159 15.9308 52.5222 15.9471C53.4737 15.9918 53.9649 16.4617 53.9752 17.4175C53.9959 19.6893 53.9938 21.9631 53.9773 24.2349C53.969 25.2904 53.4386 25.7724 52.3282 25.7765C50.2747 25.7846 48.2231 25.7785 46.1695 25.7806C45.9797 25.7806 45.7877 25.803 45.5029 25.8192C45.5029 26.3236 45.5029 26.7853 45.5029 27.249C45.5029 30.1024 45.505 32.9579 45.5029 35.8113C45.5008 37.3509 45.1004 37.7496 43.5711 37.7496C41.4907 37.7516 39.4082 37.7516 37.3278 37.7496C35.9491 37.7475 35.4971 37.3164 35.493 35.9659C35.4868 32.6142 35.4909 29.2625 35.4909 25.7785C35.1524 25.7785 34.8573 25.7785 34.5601 25.7785C32.62 25.7785 30.6799 25.7826 28.7399 25.7765C27.421 25.7724 26.9897 25.3392 26.9876 24.0193C26.9835 21.9123 26.9835 19.8073 26.9876 17.7002C26.9897 16.3335 27.3921 15.9451 28.8121 15.939C30.6965 15.9329 32.5808 15.9369 34.4651 15.9369C34.7685 15.9369 35.0699 15.9369 35.4909 15.9369C35.4909 14.3953 35.4909 12.935 35.4909 11.4768C35.4909 8.83486 35.5693 8.75554 38.2194 8.75554C40.0191 8.75554 41.8188 8.75351 43.6186 8.75554C45.1108 8.75961 45.4967 9.14807 45.5008 10.647C45.5029 12.3676 45.5008 14.0821 45.5008 15.941ZM51.2385 18.6012C50.8959 18.6012 50.5966 18.6012 50.2974 18.6012C48.4976 18.6012 46.6979 18.6012 44.8982 18.6012C43.117 18.6012 42.8033 18.286 42.8013 16.5064C42.8013 14.8488 42.8013 13.1933 42.8013 11.4788C41.2348 11.4788 39.7632 11.4788 38.1884 11.4788C38.1884 11.8225 38.1884 12.1195 38.1884 12.4184C38.1884 13.9153 38.1967 15.4122 38.1864 16.9071C38.1781 18.1579 37.7261 18.5951 36.4444 18.5992C34.5044 18.6073 32.5643 18.6012 30.6222 18.6012C30.327 18.6012 30.0319 18.6012 29.7532 18.6012C29.7532 20.1815 29.7532 21.6296 29.7532 23.1204C31.9307 23.1204 34.0379 23.1204 36.1452 23.1204C37.8665 23.1204 38.1884 23.4437 38.1884 25.1725C38.1884 28.1662 38.1884 31.158 38.1884 34.1517C38.1884 34.4467 38.1884 34.7416 38.1884 35.0283C39.788 35.0283 41.2595 35.0283 42.8013 35.0283C42.8013 34.6622 42.8013 34.3633 42.8013 34.0623C42.8013 31.0136 42.7971 27.9649 42.8033 24.9162C42.8054 23.5271 43.212 23.1265 44.5989 23.1224C46.2294 23.1183 47.8619 23.1204 49.4924 23.1204C50.0703 23.1204 50.6482 23.1204 51.2385 23.1204C51.2385 21.5645 51.2385 20.1347 51.2385 18.6012Z" fill="#CC4517"/>
<path d="M40.4133 51.2397C45.1933 51.2397 49.9733 51.2397 54.7554 51.2397C55.0072 51.2397 55.2693 51.2153 55.5128 51.2662C56.2352 51.4147 56.6769 51.8702 56.6583 52.5983C56.6397 53.3183 56.2022 53.7698 55.4633 53.8837C55.2714 53.9142 55.0712 53.8979 54.873 53.8979C45.2841 53.8979 35.6952 53.8979 26.1063 53.8979C25.9103 53.8979 25.7101 53.9122 25.5161 53.8857C24.7834 53.78 24.3458 53.3712 24.2963 52.6288C24.2488 51.9231 24.7442 51.3577 25.483 51.256C25.7328 51.2214 25.9887 51.2377 26.2405 51.2377C30.9648 51.2397 35.689 51.2397 40.4133 51.2397Z" fill="#751300"/>
<path d="M40.5021 45.8401C44.3244 45.8401 48.1488 45.8401 51.9712 45.8421C52.2787 45.8421 52.5945 45.836 52.8958 45.8909C53.5686 46.0109 53.9278 46.4706 53.9567 47.1072C53.9856 47.7498 53.6512 48.2359 52.999 48.4068C52.6523 48.4962 52.2766 48.4962 51.9134 48.4962C44.2955 48.5003 36.6777 48.5003 29.0598 48.4983C28.7234 48.4983 28.3787 48.5003 28.0547 48.4332C27.3591 48.2888 26.9835 47.8312 27 47.1336C27.0165 46.436 27.4066 45.9967 28.1104 45.8808C28.4117 45.8299 28.7275 45.8442 29.035 45.8442C32.8553 45.8401 36.6797 45.8401 40.5021 45.8401Z" fill="#CC4517"/>
</g>
<defs>
<clipPath id="clip0_14_75">
<rect width="81" height="80" fill="white"/>
</clipPath>
</defs>
</svg>
