<svg width="74" height="74" viewBox="0 0 74 74" fill="none" xmlns="http://www.w3.org/2000/svg">
<g clip-path="url(#clip0_14_93)">
<path d="M37.0012 4.43134C39.4609 2.25156 42.2266 0.867691 45.3844 0.262995C50.0815 -0.635684 53.8966 0.874862 56.8105 4.57713C61.1013 10.0266 61.0727 17.7633 56.8536 23.6143C54.5157 26.8553 51.4202 29.2765 48.2768 31.6618C45.2577 33.9539 42.2792 36.2986 39.3008 38.6433C38.8346 39.009 38.4761 39.5085 38.0506 39.9316C37.4362 40.541 36.6283 40.639 36.0737 40.0343C32.61 36.2484 28.214 33.6312 24.2125 30.5193C21.5926 28.483 19.0635 26.3462 17.1464 23.6C13.8907 18.9417 13.0134 13.8866 14.9879 8.50885C17.1751 2.55032 22.8571 -2.06497 31.1686 0.946565C33.3152 1.72335 35.2299 2.87538 37.0012 4.43134ZM37.0849 36.7886C38.8633 35.376 40.7374 33.8463 42.6593 32.3764C44.6075 30.885 46.6202 29.4796 48.5684 27.9906C50.7485 26.3223 52.7947 24.5034 54.4393 22.2806C57.8145 17.7155 58.2376 12.008 55.4576 7.41658C53.5954 4.34051 50.9254 2.49296 47.2011 2.79172C43.6609 3.07615 40.6298 4.56757 38.1701 7.16322C37.398 7.97586 36.5996 7.97825 35.8323 7.15844C34.116 5.32524 32.0315 4.09433 29.6507 3.3295C23.775 1.44371 20.0006 4.40983 18.0739 8.36306C15.9464 12.7298 16.3289 17.0439 18.8293 21.1716C20.4834 23.9011 22.8332 25.9901 25.3336 27.9069C29.218 30.8826 33.1479 33.8153 37.0849 36.7886Z" fill="#CC4517"/>
<path d="M16.446 50.6917C16.446 52.6444 16.446 54.5517 16.446 56.4614C16.446 57.2023 16.4675 57.9457 16.4365 58.6866C16.403 59.504 15.846 60.0681 15.1098 60.0896C14.3425 60.1111 13.721 59.5279 13.7162 58.6722C13.6971 55.6201 13.7066 52.5655 13.7066 49.511C13.7066 48.7677 14.1273 48.3016 14.7943 48.1701C16.4962 47.8307 18.2078 47.5439 19.9217 47.2762C23.6364 46.6978 27.124 47.5965 30.4897 49.0497C32.2108 49.793 33.865 50.7013 35.5215 51.5904C35.9757 51.8342 36.2769 51.9106 36.7311 51.5808C38.9494 49.9747 41.1796 48.3852 43.4338 46.8341C46.4027 44.7905 49.4983 44.585 52.7158 46.2772C53.06 46.4588 53.5835 46.5138 53.9516 46.3991C56.3205 45.6605 58.5197 45.9234 60.5228 47.4125C60.9053 47.6969 61.1993 47.7614 61.6726 47.6252C63.7929 47.0253 65.6837 47.489 67.259 49.0473C67.5793 49.3652 67.8256 49.4488 68.2821 49.3556C70.9952 48.8035 73.4239 50.4455 73.945 53.1272C74.1052 53.947 73.945 54.6019 73.2446 55.166C70.9809 56.992 68.7626 58.8754 66.5061 60.711C66.1594 60.993 66.071 61.201 66.2479 61.6312C66.4726 62.1785 66.5993 62.7737 66.7236 63.3568C66.9435 64.3894 66.3507 65.116 65.2989 65.2379C63.1475 65.4888 60.9985 65.7589 58.8567 66.0672C58.3643 66.1389 57.8623 66.323 57.4225 66.562C52.0942 69.4636 46.5031 71.727 40.6681 73.3642C36.7 74.478 32.8012 74.1195 29.0722 72.3795C24.3224 70.1615 19.6038 67.8741 14.8731 65.6155C14.7703 65.5653 14.6652 65.5247 14.5648 65.4697C13.7855 65.0419 13.513 64.3248 13.8596 63.6174C14.211 62.9003 14.9305 62.6398 15.748 63.0175C17.8946 64.0094 20.0269 65.0347 22.1639 66.0457C25.0228 67.3985 27.8626 68.7919 30.7455 70.0874C33.8052 71.4593 36.9916 71.6529 40.178 70.6156C43.3453 69.5855 46.4648 68.4143 49.6034 67.3005C49.7301 67.2551 49.8449 67.1762 50.0576 67.0615C48.1262 66.9062 46.3023 66.7628 44.4784 66.6122C44.2226 66.5907 43.9645 66.5715 43.7182 66.5022C42.9916 66.2991 42.6163 65.8067 42.6665 65.049C42.7143 64.3344 43.2951 63.8277 44.0744 63.854C44.7868 63.8755 45.4967 63.9615 46.2043 64.0452C50.4496 64.5471 54.6281 64.0117 58.7994 63.2851C60.3651 63.0127 61.9428 62.8071 63.6543 62.5514C63.0137 61.201 62.0671 60.2951 60.6639 60.1063C58.4336 59.8028 56.1842 59.6355 53.942 59.4275C50.6767 59.124 47.4067 58.8682 44.1461 58.5312C40.7398 58.1799 37.9454 56.3777 35.1534 54.5947C31.5678 52.305 27.7957 50.3881 23.5073 49.9818C21.7312 49.8145 19.8954 50.24 18.0906 50.4168C17.5552 50.4622 17.0293 50.5889 16.446 50.6917ZM58.6583 49.4464C56.9946 48.4785 55.4408 48.5119 54.0305 49.4895C51.2265 51.4374 48.4274 53.3949 45.6306 55.3524C45.4656 55.4671 45.3246 55.6201 45.0378 55.871C46.4338 55.9858 47.6481 56.1101 48.8648 56.1674C49.1397 56.1794 49.46 56.0001 49.7014 55.8304C52.2162 54.0641 54.7213 52.2811 57.2265 50.4981C57.6854 50.173 58.1348 49.8336 58.6583 49.4464ZM50.7413 48.3852C49.0728 47.7232 47.3684 47.6515 46.0513 48.488C43.5653 50.0655 41.1748 51.7959 38.6195 53.5479C39.4227 53.9709 40.0824 54.296 40.7207 54.664C41.194 54.9365 41.5597 54.9007 42.0234 54.5684C44.3565 52.8834 46.723 51.2438 49.0752 49.5851C49.6011 49.2098 50.1269 48.8274 50.7413 48.3852ZM65.4782 51.1888C64.2973 49.946 62.9372 49.7906 61.7348 50.6439C59.1579 52.4771 56.5858 54.3175 54.0114 56.1555C53.8608 56.263 53.7221 56.3921 53.4616 56.6096C54.8432 56.741 56.0743 56.8701 57.3101 56.9681C57.487 56.9824 57.7069 56.8964 57.8551 56.7865C60.3866 54.9413 62.9085 53.0818 65.4782 51.1888ZM64.5316 58.9065C66.5634 57.2023 68.6813 55.436 70.7729 53.6411C70.9355 53.5001 71.0311 53.0651 70.9379 52.8786C70.4861 51.9943 69.1283 51.6621 68.3419 52.2716C66.1403 53.9781 63.9746 55.73 61.8256 57.4366C62.6264 57.874 63.4654 58.3281 64.5316 58.9065Z" fill="#751300"/>
<path d="M10.9648 56.5067C10.9648 58.5909 10.9696 60.6727 10.9624 62.7568C10.9552 64.8984 9.3728 66.3946 7.24055 66.3348C6.07164 66.3014 4.90033 66.3014 3.73142 66.3348C1.59439 66.397 0.00715849 64.9032 0.00476808 62.764C-0.00240316 58.5407 -0.00240316 54.315 0.00476808 50.0917C0.0095489 48.0577 1.47248 46.5926 3.50911 46.5711C4.82145 46.5567 6.13618 46.5567 7.44851 46.5711C9.48993 46.5926 10.9529 48.0529 10.9624 50.0845C10.972 52.226 10.9648 54.3676 10.9648 56.5067ZM8.2254 56.4446C8.2254 54.3939 8.21584 52.3408 8.23018 50.2901C8.23496 49.6113 7.96245 49.2958 7.26445 49.3077C6.06685 49.3316 4.86926 49.3245 3.67405 49.3101C3.02625 49.3029 2.74179 49.5945 2.74179 50.2375C2.74896 54.37 2.75135 58.5025 2.7394 62.6326C2.73701 63.2874 3.01669 63.5599 3.66449 63.5504C4.8597 63.5336 6.05729 63.5241 7.25489 63.5551C8.01265 63.5743 8.24213 63.2205 8.23496 62.513C8.20866 60.491 8.2254 58.4666 8.2254 56.4446Z" fill="#751300"/>
</g>
<defs>
<clipPath id="clip0_14_93">
<rect width="74" height="74" fill="white"/>
</clipPath>
</defs>
</svg>
