<svg width="31" height="31" viewBox="0 0 31 31" fill="none" xmlns="http://www.w3.org/2000/svg">
<path d="M20.3809 0.927734C25.1532 2.36305 28.9749 5.83098 30.6786 10.2706C30.7539 10.4668 30.8292 10.6718 30.8951 10.8769V10.2706V0.927734H20.3809Z" fill="#F79C1D"/>
<path d="M20.4556 30.0266H30.8945V20.9155V20.1221C30.8097 20.3895 30.7156 20.6481 30.6027 20.9155C28.8707 25.2304 25.1338 28.6181 20.4556 30.0266Z" fill="#F79C1D"/>
<path d="M0.472304 20.9148C0.340523 20.6028 0.227566 20.2908 0.124023 19.9609V20.9148V30.026H10.6289C5.95063 28.6174 2.20428 25.2297 0.472304 20.9148Z" fill="#F79C1D"/>
<path d="M10.7168 0.927734H0.136719V10.2706V11.0195C0.212022 10.7699 0.30615 10.5292 0.400279 10.2706C2.10401 5.83098 5.92565 2.36305 10.7168 0.927734Z" fill="#F79C1D"/>
<path d="M27.1775 16.6543C27.1022 17.3764 26.9328 18.0896 26.7163 18.7761H29.0032H30.8855V16.6543H29.3797H27.1775Z" fill="#CC4517"/>
<path d="M29.0583 12.4014H26.7808C26.9878 13.0789 27.129 13.7921 27.1854 14.5231H29.3971H30.8841V12.4014H29.0583Z" fill="#CC4517"/>
<path d="M25.8687 10.271H28.316C26.6123 6.51777 23.1107 3.67388 18.8467 2.70215V4.85958C21.8682 5.69759 24.4003 7.67672 25.8687 10.271Z" fill="#CC4517"/>
<path d="M18.8467 26.1215V28.2879C23.0354 27.325 26.4805 24.5614 28.2313 20.9062H25.7652C24.2685 23.4114 21.7929 25.3102 18.8467 26.1215Z" fill="#CC4517"/>
<path d="M23.0822 20.9152C23.5999 20.2644 24.0329 19.5512 24.3529 18.7845C24.6353 18.1069 24.8236 17.3937 24.9271 16.6627C24.993 16.2794 25.0118 15.8871 25.0118 15.4948C25.0118 15.1739 24.9836 14.844 24.946 14.532C24.8706 13.801 24.6918 13.0878 24.4282 12.4102C24.1364 11.6346 23.7317 10.9304 23.2328 10.2796C22.1503 8.84425 20.6254 7.72096 18.837 7.09691C18.1404 6.84729 17.3968 6.67791 16.6344 6.60659V4.45807V2.36305V0.927734H14.4411V2.37196V4.45807V6.58876C13.6505 6.66899 12.8974 6.85621 12.1915 7.10583C10.4312 7.72988 8.9346 8.84425 7.85211 10.2617C7.35323 10.9125 6.94847 11.6257 6.65667 12.3924H4.31286C4.52935 11.6436 4.8494 10.9304 5.2165 10.2617C6.6755 7.6853 9.17933 5.71509 12.1915 4.85925V2.70182C7.95565 3.7003 4.48229 6.53526 2.76914 10.2617C2.46793 10.9393 2.21378 11.6614 2.03493 12.3924C1.85609 13.0789 1.73372 13.7921 1.67725 14.5142H3.88928H6.12955C6.0919 14.8262 6.08249 15.1561 6.08249 15.477C6.08249 15.8782 6.11072 16.2615 6.1672 16.6449H3.89869H1.69607C1.76196 17.367 1.88433 18.0802 2.082 18.7666C2.27026 19.4977 2.54323 20.2109 2.87268 20.8973C4.60466 24.5257 8.03096 27.2894 12.1915 28.2611V26.0948C9.26405 25.2746 6.80728 23.3846 5.34828 20.8973C4.94353 20.2198 4.62349 19.5155 4.36934 18.7666H6.7508C7.07084 19.5422 7.48501 20.2465 8.01213 20.8973C9.0852 22.2257 10.516 23.2598 12.2009 23.866C12.9163 24.1156 13.6693 24.3029 14.4506 24.3831V26.5049V28.5999V30.0085H16.6532V28.6088V26.5138V24.3831C17.4156 24.3118 18.1592 24.1424 18.8558 23.8928C20.5313 23.3044 22.0091 22.2613 23.0822 20.9152ZM14.9589 19.6225C14.3094 20.1485 13.3304 20.0682 12.7751 19.4531C12.7657 19.4353 12.7468 19.4174 12.7374 19.3996L9.99825 15.8158C9.83823 15.6196 9.73469 15.4057 9.70645 15.2006C9.69704 15.1828 9.69704 15.165 9.68763 15.1472C9.67822 15.1204 9.6688 15.0847 9.6688 15.058C9.6688 15.0402 9.65939 15.0223 9.65939 15.0134C9.65939 14.9956 9.64998 14.9778 9.64998 14.9599C9.64998 14.9421 9.64998 14.9243 9.64998 14.9064C9.64998 14.8886 9.64998 14.8708 9.64998 14.844C9.64998 14.8262 9.64998 14.8084 9.64998 14.7995C9.64998 14.7727 9.64997 14.7371 9.65939 14.7103C9.65939 14.6925 9.65939 14.6836 9.6688 14.6657C9.6688 14.6479 9.67822 14.6212 9.67822 14.6033C9.67822 14.5855 9.68763 14.5766 9.68763 14.5588C9.69704 14.532 9.69704 14.5142 9.70645 14.4874C9.70645 14.4785 9.71587 14.4696 9.71587 14.4607C9.72528 14.425 9.74411 14.3983 9.75352 14.3626C9.76293 14.3537 9.76293 14.3448 9.77234 14.327C9.78176 14.3091 9.79117 14.2824 9.81 14.2646C9.81941 14.2557 9.81941 14.2467 9.82882 14.2289C9.84765 14.2022 9.86648 14.1754 9.8853 14.1487C9.8853 14.1487 9.8853 14.1398 9.89471 14.1398C9.91354 14.113 9.94177 14.0863 9.9606 14.0506C9.97001 14.0417 9.97943 14.0328 9.97943 14.0239C9.99826 14.006 10.0171 13.9882 10.0359 13.9615C10.0453 13.9525 10.0547 13.9436 10.0641 13.9347C10.0924 13.908 10.1206 13.8812 10.1583 13.8634C10.6572 13.4979 11.3443 13.5335 11.7961 13.908L13.9987 15.7445C14.1588 15.6107 19.75 11.1621 19.75 11.1621C20.1924 10.8323 20.8419 10.9036 21.1902 11.3226C21.2184 11.3494 21.2373 11.385 21.2561 11.4118C21.2655 11.4207 21.2655 11.4296 21.2749 11.4385C21.2937 11.4653 21.3032 11.492 21.3126 11.5187C21.3126 11.5277 21.322 11.5366 21.322 11.5366C21.3408 11.5722 21.3502 11.6079 21.3596 11.6346C21.3596 11.6436 21.3596 11.6436 21.369 11.6525C21.3785 11.6792 21.3879 11.7149 21.3879 11.7416C21.3879 11.7505 21.3879 11.7595 21.3879 11.7684C21.3973 11.804 21.3973 11.8397 21.3973 11.8753C21.3973 11.911 21.3973 11.9467 21.3973 11.9823C21.3973 11.9912 21.3973 11.9912 21.3973 12.0002C21.3973 12.0269 21.3879 12.0536 21.3879 12.0804C21.4444 12.33 21.3502 12.5796 21.1243 12.8025L21.1055 12.8203L14.9589 19.6225Z" fill="#CC4517"/>
</svg>
