<svg width="249" height="32" viewBox="0 0 249 32" fill="none" xmlns="http://www.w3.org/2000/svg">
<path d="M23.8994 19.258L28.2105 22.191C26.3655 24.8566 24.4736 26.7733 22.5157 27.9145C20.5578 29.0645 18.054 29.6351 14.9853 29.6351C10.6366 29.6351 7.05026 28.2978 4.22639 25.6322C1.41193 22.9666 0 19.4898 0 15.2106C0 10.9581 1.44017 7.49021 4.32994 4.8068C7.2197 2.12338 10.8343 0.786133 15.1924 0.786133C18.1763 0.786133 20.8119 1.45476 23.0993 2.79201C25.3866 4.12926 27.0339 5.8766 28.041 8.04294L23.5605 11.0919C21.7438 7.44563 18.9011 5.61806 15.023 5.61806C12.3686 5.61806 10.1377 6.50064 8.33042 8.2569C6.51373 10.0132 5.61009 12.331 5.61009 15.2106C5.61009 18.0099 6.51373 20.31 8.33042 22.1108C10.1471 23.9116 12.378 24.8031 15.023 24.8031C18.8446 24.812 21.8097 22.9577 23.8994 19.258Z" fill="white"/>
<path d="M82.9658 2.76595V28.6194H77.6946V25.8469C77.111 26.8275 76.2544 27.621 75.1249 28.245C73.9954 28.8691 72.6776 29.1722 71.1715 29.1722C68.2441 29.1722 65.8061 28.2361 63.8671 26.355C61.928 24.4829 60.9585 21.951 60.9585 18.7862C60.9585 15.666 61.9845 13.1608 64.0365 11.253C66.0885 9.35414 68.47 8.40023 71.1715 8.40023C74.2401 8.40023 76.4145 9.3898 77.704 11.3689V0.875977L82.9658 2.76595ZM67.9899 22.8871C69.1101 23.9569 70.5032 24.4918 72.1787 24.4918C73.8542 24.4918 75.2473 23.9569 76.3674 22.8871C77.4875 21.8173 78.0429 20.4533 78.0429 18.7862C78.0429 17.1191 77.4875 15.7551 76.3674 14.6853C75.2473 13.6155 73.8542 13.0806 72.1787 13.0806C70.5032 13.0806 69.1101 13.6155 67.9899 14.6853C66.8698 15.7551 66.3144 17.1191 66.3144 18.7862C66.3144 20.4533 66.8698 21.8173 67.9899 22.8871Z" fill="white"/>
<path d="M105.443 19.98H89.4603C89.6297 21.4866 90.2227 22.6812 91.2581 23.5638C92.2936 24.4464 93.5831 24.8922 95.1457 24.8922C97.7154 24.8922 99.6262 23.6886 100.878 21.2816L104.813 23.4212C102.864 27.2546 99.6074 29.1713 95.061 29.1713C92.1053 29.1713 89.5826 28.1996 87.5024 26.2561C85.4221 24.3127 84.3867 21.8254 84.3867 18.7854C84.3867 15.7186 85.441 13.2224 87.5495 11.2968C89.6579 9.37115 92.2465 8.39941 95.3151 8.39941C98.2708 8.39941 100.699 9.31766 102.601 11.1541C104.502 12.9906 105.443 15.3531 105.443 18.2327V19.98ZM95.1551 12.2061C93.7902 12.2061 92.5948 12.5984 91.5782 13.374C90.5616 14.1496 89.8556 15.1391 89.4603 16.3248H100.596C100.342 15.0322 99.7486 14.0159 98.7979 13.2937C97.8472 12.5716 96.6329 12.2061 95.1551 12.2061Z" fill="white"/>
<path d="M128.796 2.76595V28.6194H123.525V25.8469C122.942 26.8275 122.085 27.621 120.955 28.245C119.826 28.8691 118.508 29.1722 117.002 29.1722C114.075 29.1722 111.637 28.2361 109.698 26.355C107.759 24.4829 106.789 21.951 106.789 18.7862C106.789 15.666 107.815 13.1608 109.867 11.253C111.919 9.35414 114.301 8.40023 117.002 8.40023C120.071 8.40023 122.245 9.3898 123.535 11.3689V0.875977L128.796 2.76595ZM113.821 22.8871C114.941 23.9569 116.334 24.4918 118.009 24.4918C119.685 24.4918 121.078 23.9569 122.198 22.8871C123.318 21.8173 123.873 20.4533 123.873 18.7862C123.873 17.1191 123.318 15.7551 122.198 14.6853C121.078 13.6155 119.685 13.0806 118.009 13.0806C116.334 13.0806 114.941 13.6155 113.821 14.6853C112.7 15.7551 112.145 17.1191 112.145 18.7862C112.145 20.4533 112.7 21.8173 113.821 22.8871Z" fill="white"/>
<path d="M131.31 28.6194V0.875977H151.519V5.55635H136.826V11.9395H150.342V16.6199H136.826V23.9569H151.641V28.6373H131.31V28.6194Z" fill="white"/>
<path d="M173.461 8.96191L165.046 28.6195H160.104L151.689 8.96191H157.299L162.57 22.2809L167.841 8.96191H173.461Z" fill="white"/>
<path d="M193.924 19.98H177.941C178.111 21.4866 178.704 22.6812 179.739 23.5638C180.775 24.4464 182.064 24.8921 183.627 24.8921C186.196 24.8921 188.107 23.6886 189.359 21.2816L193.294 23.4212C191.345 27.2546 188.088 29.1713 183.542 29.1713C180.586 29.1713 178.064 28.1996 175.983 26.2561C173.903 24.3127 172.868 21.8254 172.868 18.7854C172.868 15.7186 173.922 13.2224 176.03 11.2968C178.139 9.37115 180.727 8.39941 183.796 8.39941C186.752 8.39941 189.18 9.31766 191.082 11.1541C192.983 12.9906 193.924 15.3531 193.924 18.2327V19.98ZM183.627 12.2061C182.262 12.2061 181.066 12.5984 180.05 13.374C179.033 14.1496 178.327 15.1391 177.932 16.3248H189.067C188.813 15.0322 188.22 14.0159 187.269 13.2937C186.319 12.5716 185.104 12.2061 183.627 12.2061Z" fill="white"/>
<path d="M216.026 15.2193V28.6185H210.754V17.2786C210.754 14.4793 209.342 13.0797 206.528 13.0797C205.135 13.0797 203.977 13.5967 203.073 14.622C202.17 15.6561 201.718 16.9844 201.718 18.6248V28.6096H196.447V8.96093H201.718V12.1347C203.422 9.64739 205.766 8.4082 208.749 8.4082C210.952 8.4082 212.722 9.03225 214.04 10.2714C215.357 11.5106 216.026 13.1599 216.026 15.2193Z" fill="white"/>
<path d="M216.986 12.9999V8.95246H220.206V3.63912L225.477 1.74023V8.95246H229.995V12.9999H225.486V21.9594C225.486 23.8137 226.362 24.732 228.122 24.732C228.734 24.732 229.317 24.6518 229.882 24.4913L230.381 28.61C229.317 28.9755 228.15 29.1627 226.87 29.1627C222.436 29.1627 220.215 27.0766 220.215 22.9044V12.9999H216.986Z" fill="white"/>
<path d="M237.159 13.7929C237.159 15.0053 238.787 15.9325 242.054 16.5654C244.482 17.0379 246.242 17.76 247.344 18.7229C248.445 19.6857 249 20.9873 249 22.6276C249 24.5265 248.257 26.0956 246.779 27.3258C245.301 28.5561 243.305 29.1712 240.792 29.1712C238.392 29.1712 236.406 28.6185 234.824 27.5041C233.243 26.3987 232.066 24.9812 231.285 23.2606L235.512 20.7198C235.982 22.0125 236.679 23.0466 237.582 23.8133C238.486 24.58 239.587 24.9633 240.867 24.9633C241.733 24.9633 242.496 24.7672 243.145 24.3928C243.804 24.0094 244.124 23.4745 244.124 22.7881C244.124 22.1551 243.776 21.647 243.08 21.2636C242.383 20.8803 241.253 20.5415 239.691 20.2562C234.862 19.3558 232.452 17.3054 232.452 14.1138C232.452 12.3397 233.205 10.949 234.711 9.93267C236.218 8.91636 238.044 8.4082 240.19 8.4082C242.392 8.4082 244.162 8.80046 245.48 9.5939C246.807 10.3873 247.899 11.6443 248.765 13.356L244.953 15.4956C244.002 13.1956 242.439 12.0455 240.265 12.0455C238.204 12.0455 237.159 12.6339 237.159 13.7929Z" fill="white"/>
<path d="M49.3809 1.92773C54.1532 3.36305 57.9749 6.83098 59.6786 11.2706C59.7539 11.4668 59.8292 11.6718 59.8951 11.8769V11.2706V1.92773H49.3809Z" fill="#F79C1D"/>
<path d="M49.4556 31.0266H59.8945V21.9155V21.1221C59.8097 21.3895 59.7156 21.6481 59.6027 21.9155C57.8707 26.2304 54.1338 29.6181 49.4556 31.0266Z" fill="#F79C1D"/>
<path d="M29.4723 21.9148C29.3405 21.6028 29.2276 21.2908 29.124 20.9609V21.9148V31.026H39.6289C34.9506 29.6174 31.2043 26.2297 29.4723 21.9148Z" fill="#F79C1D"/>
<path d="M39.7168 1.92773H29.1367V11.2706V12.0195C29.212 11.7699 29.3061 11.5292 29.4003 11.2706C31.104 6.83098 34.9257 3.36305 39.7168 1.92773Z" fill="#F79C1D"/>
<path d="M56.1775 17.6543C56.1022 18.3764 55.9328 19.0896 55.7163 19.7761H58.0032H59.8855V17.6543H58.3797H56.1775Z" fill="#CC4517"/>
<path d="M58.0583 13.4014H55.7808C55.9878 14.0789 56.129 14.7921 56.1854 15.5231H58.3971H59.8841V13.4014H58.0583Z" fill="#CC4517"/>
<path d="M54.8687 11.271H57.316C55.6123 7.51777 52.1107 4.67388 47.8467 3.70215V5.85958C50.8682 6.69759 53.4003 8.67672 54.8687 11.271Z" fill="#CC4517"/>
<path d="M47.8467 27.1215V29.2879C52.0354 28.325 55.4805 25.5614 57.2313 21.9062H54.7652C53.2685 24.4114 50.7929 26.3102 47.8467 27.1215Z" fill="#CC4517"/>
<path d="M52.0822 21.9152C52.5999 21.2644 53.0329 20.5512 53.3529 19.7845C53.6353 19.1069 53.8236 18.3937 53.9271 17.6627C53.993 17.2794 54.0118 16.8871 54.0118 16.4948C54.0118 16.1739 53.9836 15.844 53.946 15.532C53.8706 14.801 53.6918 14.0878 53.4282 13.4102C53.1364 12.6346 52.7317 11.9304 52.2328 11.2796C51.1503 9.84425 49.6254 8.72096 47.837 8.09691C47.1404 7.84729 46.3968 7.67791 45.6344 7.60659V5.45807V3.36305V1.92773H43.4411V3.37196V5.45807V7.58876C42.6505 7.66899 41.8974 7.85621 41.1915 8.10583C39.4312 8.72988 37.9346 9.84425 36.8521 11.2617C36.3532 11.9125 35.9485 12.6257 35.6567 13.3924H33.3129C33.5294 12.6436 33.8494 11.9304 34.2165 11.2617C35.6755 8.6853 38.1793 6.71509 41.1915 5.85925V3.70182C36.9557 4.7003 33.4823 7.53526 31.7691 11.2617C31.4679 11.9393 31.2138 12.6614 31.0349 13.3924C30.8561 14.0789 30.7337 14.7921 30.6772 15.5142H32.8893H35.1295C35.0919 15.8262 35.0825 16.1561 35.0825 16.477C35.0825 16.8782 35.1107 17.2615 35.1672 17.6449H32.8987H30.6961C30.762 18.367 30.8843 19.0802 31.082 19.7666C31.2703 20.4977 31.5432 21.2109 31.8727 21.8973C33.6047 25.5257 37.031 28.2894 41.1915 29.2611V27.0948C38.264 26.2746 35.8073 24.3846 34.3483 21.8973C33.9435 21.2198 33.6235 20.5155 33.3693 19.7666H35.7508C36.0708 20.5422 36.485 21.2465 37.0121 21.8973C38.0852 23.2257 39.516 24.2598 41.2009 24.866C41.9163 25.1156 42.6693 25.3029 43.4506 25.3831V27.5049V29.5999V31.0085H45.6532V29.6088V27.5138V25.3831C46.4156 25.3118 47.1592 25.1424 47.8558 24.8928C49.5313 24.3044 51.0091 23.2613 52.0822 21.9152ZM43.9589 20.6225C43.3094 21.1485 42.3304 21.0682 41.7751 20.4531C41.7657 20.4353 41.7468 20.4174 41.7374 20.3996L38.9983 16.8158C38.8382 16.6196 38.7347 16.4057 38.7065 16.2006C38.697 16.1828 38.697 16.165 38.6876 16.1472C38.6782 16.1204 38.6688 16.0847 38.6688 16.058C38.6688 16.0402 38.6594 16.0223 38.6594 16.0134C38.6594 15.9956 38.65 15.9778 38.65 15.9599C38.65 15.9421 38.65 15.9243 38.65 15.9064C38.65 15.8886 38.65 15.8708 38.65 15.844C38.65 15.8262 38.65 15.8084 38.65 15.7995C38.65 15.7727 38.65 15.7371 38.6594 15.7103C38.6594 15.6925 38.6594 15.6836 38.6688 15.6657C38.6688 15.6479 38.6782 15.6212 38.6782 15.6033C38.6782 15.5855 38.6876 15.5766 38.6876 15.5588C38.697 15.532 38.697 15.5142 38.7065 15.4874C38.7065 15.4785 38.7159 15.4696 38.7159 15.4607C38.7253 15.425 38.7441 15.3983 38.7535 15.3626C38.7629 15.3537 38.7629 15.3448 38.7723 15.327C38.7818 15.3091 38.7912 15.2824 38.81 15.2646C38.8194 15.2557 38.8194 15.2467 38.8288 15.2289C38.8476 15.2022 38.8665 15.1754 38.8853 15.1487C38.8853 15.1487 38.8853 15.1398 38.8947 15.1398C38.9135 15.113 38.9418 15.0863 38.9606 15.0506C38.97 15.0417 38.9794 15.0328 38.9794 15.0239C38.9983 15.006 39.0171 14.9882 39.0359 14.9615C39.0453 14.9525 39.0547 14.9436 39.0641 14.9347C39.0924 14.908 39.1206 14.8812 39.1583 14.8634C39.6572 14.4979 40.3443 14.5335 40.7961 14.908L42.9987 16.7445C43.1588 16.6107 48.75 12.1621 48.75 12.1621C49.1924 11.8323 49.8419 11.9036 50.1902 12.3226C50.2184 12.3494 50.2373 12.385 50.2561 12.4118C50.2655 12.4207 50.2655 12.4296 50.2749 12.4385C50.2937 12.4653 50.3032 12.492 50.3126 12.5187C50.3126 12.5277 50.322 12.5366 50.322 12.5366C50.3408 12.5722 50.3502 12.6079 50.3596 12.6346C50.3596 12.6436 50.3596 12.6436 50.369 12.6525C50.3785 12.6792 50.3879 12.7149 50.3879 12.7416C50.3879 12.7505 50.3879 12.7595 50.3879 12.7684C50.3973 12.804 50.3973 12.8397 50.3973 12.8753C50.3973 12.911 50.3973 12.9467 50.3973 12.9823C50.3973 12.9912 50.3973 12.9912 50.3973 13.0002C50.3973 13.0269 50.3879 13.0536 50.3879 13.0804C50.4444 13.33 50.3502 13.5796 50.1243 13.8025L50.1055 13.8203L43.9589 20.6225Z" fill="#CC4517"/>
</svg>
