<svg width="32" height="32" viewBox="0 0 32 32" fill="none" xmlns="http://www.w3.org/2000/svg">
<circle cx="16" cy="16" r="15.25" stroke="#CC4516" stroke-width="1.5"/>
<path fill-rule="evenodd" clip-rule="evenodd" d="M19.9579 8.00004H12.0253C10.9577 8.00004 9.93388 8.42412 9.179 9.179C8.42412 9.93388 8.00004 10.9577 8.00004 12.0253V19.9579C7.99782 20.4879 8.1003 21.0131 8.30159 21.5034C8.50289 21.9938 8.79903 22.4395 9.17303 22.815C9.54703 23.1906 9.99152 23.4886 10.481 23.692C10.9705 23.8953 11.4953 24 12.0253 24H19.9579C20.4893 24.0022 21.0159 23.8992 21.5073 23.6968C21.9988 23.4945 22.4452 23.1968 22.821 22.821C23.1968 22.4452 23.4945 21.9988 23.6968 21.5073C23.8992 21.0159 24.0022 20.4893 24 19.9579V12.0253C24 11.4953 23.8953 10.9705 23.692 10.481C23.4886 9.99152 23.1906 9.54703 22.815 9.17303C22.4395 8.79903 21.9937 8.50289 21.5034 8.30159C21.0131 8.1003 20.4879 7.99782 19.9579 8.00004ZM22.2652 19.9579C22.2652 20.2609 22.2055 20.5609 22.0896 20.8409C21.9736 21.1208 21.8037 21.3752 21.5894 21.5894C21.3752 21.8037 21.1208 21.9736 20.8409 22.0896C20.5609 22.2055 20.2609 22.2652 19.9579 22.2652H12.0253C11.7231 22.2652 11.4238 22.2054 11.1448 22.0893C10.8658 21.9731 10.6126 21.8029 10.3997 21.5884C10.1867 21.3739 10.0184 21.1194 9.90426 20.8396C9.79015 20.5597 9.73254 20.2601 9.73476 19.9579V12.0253C9.73476 11.4178 9.97609 10.8352 10.4056 10.4056C10.8352 9.97609 11.4178 9.73476 12.0253 9.73476H19.9579C20.2601 9.73254 20.5597 9.79015 20.8396 9.90426C21.1194 10.0184 21.3739 10.1867 21.5884 10.3997C21.8029 10.6126 21.9731 10.8658 22.0893 11.1448C22.2054 11.4238 22.2652 11.7231 22.2652 12.0253V19.9579ZM21.221 11.7558C21.221 11.9497 21.1632 12.1392 21.0551 12.3002C20.947 12.4612 20.7935 12.5864 20.614 12.6598C20.4345 12.7332 20.2373 12.7515 20.0473 12.7124C19.8574 12.6734 19.6834 12.5786 19.5475 12.4403C19.4115 12.302 19.3199 12.1264 19.2841 11.9358C19.2483 11.7452 19.2701 11.5483 19.3466 11.3702C19.4231 11.192 19.551 11.0406 19.7138 10.9353C19.8766 10.83 20.0671 10.7756 20.261 10.779C20.5172 10.7834 20.7613 10.8882 20.9409 11.0709C21.1204 11.2537 21.221 11.4996 21.221 11.7558ZM13.7076 12.5689C14.3862 12.1155 15.184 11.8735 16.0001 11.8735C16.542 11.8735 17.0785 11.9803 17.5791 12.1876C18.0798 12.395 18.5346 12.6989 18.9178 13.0821C19.301 13.4653 19.6049 13.9201 19.8123 14.4208C20.0196 14.9214 20.1264 15.458 20.1264 15.9998C20.1264 16.8159 19.8844 17.6137 19.431 18.2923C18.9776 18.9708 18.3331 19.4997 17.5791 19.812C16.8252 20.1243 15.9955 20.2061 15.1951 20.0468C14.3947 19.8876 13.6594 19.4946 13.0823 18.9176C12.5053 18.3405 12.1123 17.6053 11.9531 16.8048C11.7939 16.0044 11.8756 15.1747 12.1879 14.4208C12.5002 13.6668 13.0291 13.0223 13.7076 12.5689ZM14.6808 17.9743C15.0713 18.2353 15.5304 18.3746 16.0001 18.3746C16.6285 18.3701 17.23 18.1185 17.6744 17.6741C18.1188 17.2297 18.3704 16.6283 18.3748 15.9998C18.3748 15.5302 18.2355 15.071 17.9746 14.6805C17.7137 14.29 17.3428 13.9856 16.9088 13.8059C16.4749 13.6261 15.9974 13.5791 15.5368 13.6707C15.0761 13.7624 14.653 13.9885 14.3209 14.3206C13.9888 14.6528 13.7626 15.0759 13.671 15.5365C13.5794 15.9972 13.6264 16.4747 13.8061 16.9086C13.9859 17.3425 14.2902 17.7134 14.6808 17.9743Z" fill="#CC4516"/>
</svg>
