<svg width="131" height="16" viewBox="0 0 131 16" fill="none" xmlns="http://www.w3.org/2000/svg">
<path d="M12.4968 9.6588L14.751 11.1925C13.7863 12.5863 12.797 13.5885 11.7733 14.1852C10.7495 14.7865 9.44028 15.0849 7.83573 15.0849C5.56179 15.0849 3.68653 14.3856 2.20995 12.9918C0.73829 11.598 0 9.78 0 7.54244C0 5.31887 0.753056 3.50551 2.26409 2.10238C3.77513 0.699238 5.66515 0 7.94401 0C9.50426 0 10.8824 0.349619 12.0784 1.04886C13.2745 1.74809 14.1358 2.66177 14.6625 3.79453L12.3196 5.38879C11.3697 3.4822 9.88325 2.52658 7.85541 2.52658C6.46743 2.52658 5.30093 2.98808 4.35591 3.90641C3.40598 4.82474 2.93347 6.03675 2.93347 7.54244C2.93347 9.00618 3.40598 10.2089 4.35591 11.1505C5.30585 12.0921 6.47235 12.5583 7.85541 12.5583C9.85372 12.563 11.4041 11.5934 12.4968 9.6588Z" fill="#751300"/>
<path d="M43.3825 1.03513V14.5537H40.6262V13.104C40.321 13.6167 39.8731 14.0316 39.2825 14.3579C38.6919 14.6842 38.0028 14.8427 37.2153 14.8427C35.6846 14.8427 34.4098 14.3533 33.3959 13.3697C32.382 12.3907 31.875 11.0669 31.875 9.412C31.875 7.78044 32.4115 6.47054 33.4845 5.47296C34.5575 4.48004 35.8027 3.98125 37.2153 3.98125C38.8198 3.98125 39.9568 4.49869 40.6311 5.53356V0.046875L43.3825 1.03513ZM35.5517 11.5563C36.1374 12.1157 36.8658 12.3954 37.7419 12.3954C38.618 12.3954 39.3465 12.1157 39.9322 11.5563C40.5179 10.9969 40.8083 10.2837 40.8083 9.412C40.8083 8.54028 40.5179 7.82706 39.9322 7.26767C39.3465 6.70828 38.618 6.42858 37.7419 6.42858C36.8658 6.42858 36.1374 6.70828 35.5517 7.26767C34.966 7.82706 34.6756 8.54028 34.6756 9.412C34.6756 10.2837 34.966 10.9969 35.5517 11.5563Z" fill="#751300"/>
<path d="M55.1354 10.0368H46.7779C46.8665 10.8246 47.1766 11.4493 47.718 11.9108C48.2594 12.3723 48.9337 12.6054 49.7508 12.6054C51.0945 12.6054 52.0936 11.9761 52.7482 10.7174L54.8056 11.8362C53.7868 13.8407 52.0838 14.8429 49.7065 14.8429C48.161 14.8429 46.8419 14.3348 45.7542 13.3186C44.6664 12.3024 44.125 11.0018 44.125 9.41219C44.125 7.80861 44.6763 6.50336 45.7788 5.49646C46.8813 4.48956 48.2348 3.98145 49.8394 3.98145C51.3849 3.98145 52.6547 4.46159 53.6489 5.42187C54.6432 6.38216 55.1354 7.61748 55.1354 9.12317V10.0368ZM49.7557 5.97194C49.042 5.97194 48.4169 6.17705 47.8854 6.58261C47.3538 6.98817 46.9846 7.5056 46.7779 8.12559H52.6006C52.4677 7.44966 52.1576 6.91824 51.6605 6.54066C51.1634 6.16307 50.5284 5.97194 49.7557 5.97194Z" fill="#751300"/>
<path d="M67.3468 1.03513V14.5537H64.5906V13.104C64.2854 13.6167 63.8375 14.0316 63.2469 14.3579C62.6562 14.6842 61.9672 14.8427 61.1797 14.8427C59.6489 14.8427 58.3742 14.3533 57.3602 13.3697C56.3463 12.3907 55.8394 11.0669 55.8394 9.412C55.8394 7.78044 56.3758 6.47054 57.4488 5.47296C58.5218 4.48004 59.7671 3.98125 61.1797 3.98125C62.7842 3.98125 63.9212 4.49869 64.5955 5.53356V0.046875L67.3468 1.03513ZM59.516 11.5563C60.1018 12.1157 60.8302 12.3954 61.7063 12.3954C62.5824 12.3954 63.3109 12.1157 63.8966 11.5563C64.4823 10.9969 64.7727 10.2837 64.7727 9.412C64.7727 8.54028 64.4823 7.82706 63.8966 7.26767C63.3109 6.70828 62.5824 6.42858 61.7063 6.42858C60.8302 6.42858 60.1018 6.70828 59.516 7.26767C58.9303 7.82706 58.6399 8.54028 58.6399 9.412C58.6399 10.2837 58.9303 10.9969 59.516 11.5563Z" fill="#751300"/>
<path d="M68.6606 14.5537V0.046875H79.228V2.49421H71.5449V5.8319H78.6128V8.27923H71.5449V12.1157H79.292V14.563H68.6606V14.5537Z" fill="#751300"/>
<path d="M90.7013 4.27441L86.3011 14.5532H83.7171L79.3169 4.27441H82.2504L85.0066 11.2388L87.7629 4.27441H90.7013Z" fill="#751300"/>
<path d="M101.402 10.0368H93.044C93.1326 10.8246 93.4427 11.4493 93.9841 11.9108C94.5255 12.3723 95.1999 12.6054 96.0169 12.6054C97.3606 12.6054 98.3597 11.9761 99.0144 10.7174L101.072 11.8362C100.053 13.8407 98.3499 14.8429 95.9726 14.8429C94.4271 14.8429 93.108 14.3348 92.0203 13.3186C90.9325 12.3024 90.3911 11.0018 90.3911 9.41219C90.3911 7.8086 90.9424 6.50336 92.0449 5.49646C93.1474 4.48956 94.5009 3.98145 96.1055 3.98145C97.651 3.98145 98.9208 4.46159 99.9151 5.42187C100.909 6.38216 101.402 7.61748 101.402 9.12317V10.0368ZM96.0169 5.97194C95.3032 5.97194 94.6781 6.17705 94.1466 6.58261C93.615 6.98817 93.2458 7.5056 93.0391 8.12559H98.8618C98.7289 7.44966 98.4188 6.91824 97.9217 6.54065C97.4246 6.16307 96.7896 5.97194 96.0169 5.97194Z" fill="#751300"/>
<path d="M112.958 7.5468V14.5532H110.202V8.62363C110.202 7.15989 109.464 6.42802 107.992 6.42802C107.264 6.42802 106.658 6.69839 106.186 7.23447C105.713 7.77522 105.477 8.46979 105.477 9.32753V14.5485H102.721V4.27437H105.477V5.93389C106.368 4.63331 107.593 3.98535 109.154 3.98535C110.305 3.98535 111.231 4.31166 111.92 4.95962C112.609 5.60758 112.958 6.46998 112.958 7.5468Z" fill="#751300"/>
<path d="M113.46 6.3866V4.27024H115.144V1.49194L117.9 0.499023V4.27024H120.263V6.3866H117.905V11.0715C117.905 12.0411 118.363 12.5212 119.283 12.5212C119.603 12.5212 119.908 12.4793 120.203 12.3954L120.464 14.549C119.908 14.7402 119.298 14.838 118.628 14.838C116.31 14.838 115.149 13.7472 115.149 11.5656V6.3866H113.46Z" fill="#751300"/>
<path d="M124.008 6.80095C124.008 7.43492 124.86 7.91973 126.568 8.2507C127.838 8.49776 128.758 8.87535 129.334 9.3788C129.91 9.88225 130.2 10.5628 130.2 11.4206C130.2 12.4135 129.811 13.2339 129.039 13.8772C128.266 14.5205 127.222 14.8422 125.908 14.8422C124.653 14.8422 123.615 14.5532 122.788 13.9705C121.961 13.3924 121.346 12.6512 120.937 11.7515L123.147 10.423C123.393 11.0989 123.757 11.6397 124.23 12.0406C124.702 12.4415 125.278 12.6419 125.948 12.6419C126.4 12.6419 126.799 12.5394 127.139 12.3436C127.483 12.1431 127.651 11.8634 127.651 11.5045C127.651 11.1735 127.468 10.9078 127.104 10.7074C126.74 10.5069 126.149 10.3298 125.332 10.1806C122.807 9.70977 121.547 8.63761 121.547 6.96876C121.547 6.04111 121.941 5.3139 122.729 4.78248C123.516 4.25106 124.471 3.98535 125.593 3.98535C126.745 3.98535 127.67 4.19046 128.359 4.60534C129.053 5.02022 129.624 5.67751 130.077 6.57253L128.084 7.69131C127.587 6.48862 126.77 5.88728 125.633 5.88728C124.555 5.88728 124.008 6.19494 124.008 6.80095Z" fill="#751300"/>
<path d="M25.8208 0.59668C28.3162 1.34719 30.3145 3.16055 31.2054 5.48202C31.2448 5.58457 31.2842 5.69179 31.3186 5.79901V5.48202V0.59668H25.8208Z" fill="#F79C1D"/>
<path d="M25.8599 15.8118H31.3183V11.0477V10.6328C31.274 10.7727 31.2248 10.9078 31.1657 11.0477C30.2601 13.3039 28.3061 15.0753 25.8599 15.8118Z" fill="#F79C1D"/>
<path d="M15.4106 11.0476C15.3417 10.8845 15.2827 10.7213 15.2285 10.5488V11.0476V15.8118H20.7214C18.2752 15.0752 16.3163 13.3038 15.4106 11.0476Z" fill="#F79C1D"/>
<path d="M20.7676 0.59668H15.2354V5.48202V5.87359C15.2747 5.74306 15.3239 5.6172 15.3732 5.48202C16.264 3.16055 18.2623 1.34719 20.7676 0.59668Z" fill="#F79C1D"/>
<path d="M29.3744 8.81934C29.3351 9.19692 29.2465 9.56985 29.1333 9.92879H30.3291H31.3133V8.81934H30.526H29.3744Z" fill="#CC4517"/>
<path d="M30.3579 6.5957H29.167C29.2753 6.94998 29.3491 7.32291 29.3786 7.70516H30.5351H31.3126V6.5957H30.3579Z" fill="#CC4517"/>
<path d="M28.6903 5.4821H29.97C29.0791 3.51957 27.2482 2.03253 25.0186 1.52441V2.65252C26.5985 3.09071 27.9225 4.12558 28.6903 5.4821Z" fill="#CC4517"/>
<path d="M25.0186 13.77V14.9028C27.2088 14.3993 29.0102 12.9542 29.9257 11.043H28.6362C27.8536 12.3529 26.5591 13.3458 25.0186 13.77Z" fill="#CC4517"/>
<path d="M27.233 11.048C27.5037 10.7077 27.7301 10.3347 27.8975 9.93383C28.0451 9.57955 28.1436 9.20662 28.1977 8.82438C28.2322 8.62393 28.242 8.41882 28.242 8.21371C28.242 8.04589 28.2272 7.87341 28.2076 7.71026C28.1682 7.32801 28.0747 6.95508 27.9369 6.6008C27.7843 6.19524 27.5726 5.82698 27.3118 5.48668C26.7457 4.73617 25.9484 4.14881 25.0132 3.82249C24.649 3.69197 24.2602 3.6034 23.8615 3.56611V2.44267V1.3472V0.59668H22.7147V1.35186V2.44267V3.55678C22.3012 3.59874 21.9075 3.69663 21.5383 3.82716C20.6179 4.15347 19.8353 4.73617 19.2693 5.47736C19.0085 5.81765 18.7968 6.19058 18.6442 6.59148H17.4187C17.5319 6.1999 17.6992 5.82698 17.8912 5.47736C18.6541 4.13016 19.9633 3.09995 21.5383 2.65244V1.52433C19.3235 2.04643 17.5073 3.52882 16.6115 5.47736C16.454 5.83164 16.3211 6.20923 16.2276 6.59148C16.134 6.95042 16.0701 7.32334 16.0405 7.70093H17.1972H18.3686C18.3489 7.86409 18.344 8.03657 18.344 8.20438C18.344 8.41416 18.3588 8.6146 18.3883 8.81505H17.2021H16.0504C16.0848 9.19264 16.1488 9.56557 16.2522 9.92451C16.3506 10.3068 16.4933 10.6797 16.6656 11.0386C17.5712 12.9359 19.3628 14.381 21.5383 14.8891V13.7563C20.0076 13.3275 18.723 12.3392 17.9601 11.0386C17.7484 10.6843 17.5811 10.3161 17.4482 9.92451H18.6935C18.8608 10.3301 19.0774 10.6983 19.353 11.0386C19.9141 11.7332 20.6622 12.2739 21.5433 12.5909C21.9173 12.7215 22.3111 12.8194 22.7196 12.8613V13.9708V15.0662V15.8028H23.8713V15.0709V13.9754V12.8613C24.27 12.824 24.6588 12.7354 25.0231 12.6049C25.8992 12.2973 26.6719 11.7519 27.233 11.048ZM22.9854 10.372C22.6458 10.6471 22.1339 10.6051 21.8435 10.2835C21.8386 10.2741 21.8287 10.2648 21.8238 10.2555L20.3915 8.38153C20.3078 8.27897 20.2537 8.16709 20.2389 8.05988C20.234 8.05055 20.234 8.04123 20.2291 8.03191C20.2242 8.01792 20.2193 7.99927 20.2193 7.98529C20.2193 7.97597 20.2143 7.96664 20.2143 7.96198C20.2143 7.95266 20.2094 7.94334 20.2094 7.93401C20.2094 7.92469 20.2094 7.91537 20.2094 7.90604C20.2094 7.89672 20.2094 7.8874 20.2094 7.87341C20.2094 7.86409 20.2094 7.85476 20.2094 7.8501C20.2094 7.83612 20.2094 7.81747 20.2143 7.80349C20.2143 7.79417 20.2143 7.7895 20.2193 7.78018C20.2193 7.77086 20.2242 7.75687 20.2242 7.74755C20.2242 7.73823 20.2291 7.73357 20.2291 7.72424C20.234 7.71026 20.234 7.70093 20.2389 7.68695C20.2389 7.68229 20.2439 7.67763 20.2439 7.67296C20.2488 7.65432 20.2586 7.64033 20.2636 7.62169C20.2685 7.61703 20.2685 7.61236 20.2734 7.60304C20.2783 7.59372 20.2832 7.57973 20.2931 7.57041C20.298 7.56575 20.298 7.56109 20.3029 7.55176C20.3128 7.53778 20.3226 7.52379 20.3325 7.50981C20.3325 7.50981 20.3325 7.50515 20.3374 7.50515C20.3472 7.49116 20.362 7.47718 20.3718 7.45853C20.3768 7.45387 20.3817 7.44921 20.3817 7.44455C20.3915 7.43522 20.4014 7.4259 20.4112 7.41192C20.4161 7.40725 20.4211 7.40259 20.426 7.39793C20.4407 7.38395 20.4555 7.36996 20.4752 7.36064C20.7361 7.16951 21.0954 7.18816 21.3316 7.38394L22.4833 8.34423C22.567 8.27431 25.4906 5.94818 25.4906 5.94818C25.722 5.7757 26.0616 5.81299 26.2437 6.03209C26.2585 6.04607 26.2683 6.06472 26.2782 6.0787C26.2831 6.08336 26.2831 6.08803 26.288 6.09269C26.2978 6.10667 26.3028 6.12066 26.3077 6.13464C26.3077 6.1393 26.3126 6.14396 26.3126 6.14396C26.3225 6.16261 26.3274 6.18126 26.3323 6.19524C26.3323 6.1999 26.3323 6.1999 26.3372 6.20457C26.3421 6.21855 26.3471 6.2372 26.3471 6.25118C26.3471 6.25584 26.3471 6.2605 26.3471 6.26517C26.352 6.28381 26.352 6.30246 26.352 6.3211C26.352 6.33975 26.352 6.3584 26.352 6.37704C26.352 6.3817 26.352 6.3817 26.352 6.38637C26.352 6.40035 26.3471 6.41434 26.3471 6.42832C26.3766 6.55885 26.3274 6.68937 26.2092 6.80591L26.1994 6.81523L22.9854 10.372Z" fill="#CC4517"/>
</svg>
