<svg width="79" height="86" viewBox="0 0 79 86" fill="none" xmlns="http://www.w3.org/2000/svg">
<g clip-path="url(#clip0_14_81)">
<path d="M40.3124 3.18678C40.3124 2.54454 40.2924 1.9023 40.319 1.26229C40.35 0.521928 40.8355 0.0268683 41.5004 0.000108309C42.1587 -0.0266517 42.7572 0.443878 42.7838 1.16417C42.8348 2.58468 42.8348 4.00965 42.7772 5.43016C42.7483 6.15714 42.1565 6.59199 41.4738 6.55631C40.7978 6.5184 40.3456 6.04118 40.319 5.28075C40.2946 4.58276 40.3124 3.88477 40.3124 3.18678Z" fill="#CC4517"/>
<path d="M50.0297 4.2949C49.7837 4.74536 49.6684 5.10216 49.4379 5.34746C48.5601 6.27737 47.6536 7.18275 46.7359 8.07475C46.1175 8.67685 45.4171 8.688 44.8918 8.15949C44.3709 7.63544 44.3842 6.92407 44.9804 6.30636C45.887 5.3653 46.7803 4.39971 47.7666 3.54785C48.0769 3.28025 48.7153 3.18213 49.1165 3.30255C49.4711 3.41182 49.7083 3.92695 50.0297 4.2949Z" fill="#CC4517"/>
<path d="M38.6876 7.41476C38.4283 7.73588 38.2222 8.21756 37.883 8.3469C37.5107 8.48962 36.8701 8.47401 36.5997 8.2354C35.518 7.28319 34.505 6.24401 33.5275 5.18253C33.0554 4.66963 33.1108 4.02739 33.6095 3.52564C34.1105 3.02166 34.7533 2.98152 35.2609 3.44982C36.3004 4.41095 37.2823 5.43452 38.2598 6.46255C38.4527 6.66771 38.5081 7.00221 38.6876 7.41476Z" fill="#CC4517"/>
<path d="M59.0333 86.0001C57.5261 85.1571 57.2268 84.0064 58.2664 82.4521C59.2594 80.9692 60.3366 79.5353 61.4693 78.1572C62.4623 76.9485 62.7172 75.7421 62.2695 74.2034C61.2144 70.5841 60.2967 66.9246 59.3569 63.2741C59.1951 62.6453 58.9358 62.3799 58.2553 62.3063C53.4831 61.7934 49.5376 58.2076 48.5003 53.4822C48.057 51.4618 47.6447 49.437 47.2302 47.4099C47.0507 46.529 47.423 45.86 48.1501 45.7017C48.8793 45.5434 49.4955 45.9961 49.6795 46.8725C50.1006 48.8683 50.4708 50.8753 50.9185 52.8645C52.3549 59.2423 59.8911 62.0342 65.3726 58.2299C68.8726 55.8014 70.2357 51.7718 68.9346 47.6797C67.751 43.9534 66.5585 40.2315 65.3749 36.5052C65.2507 36.1149 65.1621 35.8362 64.6101 35.8607C58.61 36.1328 52.909 34.8528 47.4386 32.4243C47.1637 32.3016 46.8866 32.1812 46.4588 31.9939C46.7913 33.5839 47.095 35.0445 47.4075 36.5052C47.7045 37.8989 48.0503 39.2838 48.2941 40.6864C48.3739 41.1458 48.3385 41.7323 48.108 42.1047C47.9262 42.3968 47.3565 42.5931 46.9709 42.5752C46.3059 42.544 46.0133 41.9932 45.8825 41.371C45.3727 38.9649 44.8607 36.5609 44.3443 34.157C43.2559 29.0748 42.1698 23.9926 41.0726 18.9149C40.6249 16.8433 41.0926 16.0583 43.1473 15.503C47.9218 14.2141 52.694 12.9229 57.4684 11.634C59.1397 11.1835 60.0551 11.6763 60.5871 13.3377C64.1824 24.5591 67.782 35.7782 71.3573 47.0063C72.9067 51.8721 71.3329 56.8316 67.2678 59.938C66.809 60.2881 66.7247 60.5714 66.871 61.1088C67.9128 64.9355 68.9391 68.7666 69.9299 72.6067C70.2269 73.7596 70.863 74.5222 71.9624 74.9616C73.5118 75.5793 75.0434 76.2416 76.5706 76.9128C77.076 77.1358 77.5858 77.3856 78.0247 77.7178C79.5031 78.8395 79.2726 80.6012 77.5326 81.2412C76.3623 81.6716 75.1365 81.9526 73.9307 82.2782C69.5043 83.4712 65.0756 84.6554 60.6514 85.8462C60.5517 85.8729 60.4652 85.9488 60.3721 86.0001C59.9244 86.0001 59.4788 86.0001 59.0333 86.0001ZM43.482 18.0252C43.5241 18.3017 43.5396 18.4689 43.5751 18.6295C44.2113 21.5776 44.894 24.5167 45.457 27.4781C45.6343 28.408 46.051 28.9187 46.8556 29.3402C50.923 31.4743 55.2452 32.7253 59.7869 33.2182C61.2609 33.3787 62.7527 33.3765 64.3929 33.4568C62.285 26.8627 60.2435 20.4737 58.191 14.0558C53.237 15.3938 48.3917 16.7005 43.482 18.0252ZM61.6932 62.3955C62.7128 66.2222 63.6592 69.9864 64.7298 73.715C65.3593 75.9004 64.9914 77.7736 63.5772 79.5152C62.6463 80.6592 61.7907 81.8656 60.7822 83.2014C65.7605 81.8567 70.5483 80.5656 75.5688 79.2097C73.8731 78.4939 72.4213 77.8672 70.9606 77.2651C69.1319 76.5114 68.0081 75.2002 67.516 73.2534C66.6161 69.6787 65.6342 66.1263 64.6833 62.565C64.6013 62.255 64.4949 61.9517 64.4018 61.6529C63.4575 61.9138 62.6064 62.1457 61.6932 62.3955Z" fill="#751300"/>
<path d="M32.5234 27.4692C29.5422 28.8273 26.5631 29.6769 23.471 29.8553C20.4299 30.0315 17.3689 29.8932 14.2768 29.8932C13.3192 32.8881 12.3728 35.8362 11.4374 38.7909C10.8234 40.7333 10.0631 42.6488 9.65972 44.638C8.75094 49.1047 11.6191 53.6048 16.1143 55.061C20.7979 56.5774 26.971 54.14 28.1191 48.0722C28.3275 46.975 28.5691 45.8823 28.8129 44.7919C29.0146 43.891 29.5821 43.4695 30.3379 43.6278C31.0782 43.7817 31.4462 44.4328 31.2622 45.3182C30.9962 46.6049 30.7369 47.8916 30.431 49.1694C29.2939 53.8992 25.4504 57.2843 20.4698 57.911C19.9467 57.9779 19.7716 58.1897 19.6541 58.638C18.7077 62.2305 17.7368 65.8163 16.8147 69.4133C16.7172 69.7969 16.7748 70.3009 16.9477 70.6577C18.1159 73.0705 19.3394 75.4544 20.5297 77.8561C20.7513 78.3043 20.9641 78.7726 21.0794 79.2543C21.4296 80.7172 20.461 81.801 18.9892 81.5245C17.6814 81.2792 16.398 80.8934 15.1102 80.5499C10.7902 79.3926 6.47011 78.2263 2.15227 77.06C1.88407 76.9886 1.61808 76.9017 1.36096 76.7969C-0.172889 76.1702 -0.463256 74.7698 0.735896 73.6213C1.19472 73.182 1.73778 72.8252 2.26975 72.4706C4.33557 71.1014 6.42356 69.7634 8.47387 68.3719C8.80192 68.1489 9.09672 67.7319 9.20311 67.3483C10.185 63.7937 11.1093 60.2257 12.0802 56.6689C12.2265 56.1292 12.1201 55.8415 11.6657 55.4959C7.60055 52.3962 6.04231 47.45 7.59833 42.5663C11.167 31.3606 14.7511 20.1637 18.3309 8.96467C18.8894 7.21858 19.7428 6.74359 21.4917 7.21189C26.3503 8.51198 31.2068 9.81653 36.061 11.1255C37.7789 11.5894 38.302 12.4881 37.9251 14.2498C36.1652 22.445 34.4097 30.6425 32.652 38.8378C32.6453 38.8645 32.6453 38.8935 32.6387 38.9203C32.4192 39.926 31.8163 40.4345 31.0627 40.2494C30.2869 40.0598 29.9677 39.3953 30.185 38.3672C30.5839 36.4807 30.9984 34.5985 31.4018 32.7142C31.7654 31.0238 32.1244 29.3357 32.5234 27.4692ZM35.5002 13.5897C30.5596 12.2584 25.6898 10.9471 20.7624 9.61806C18.8517 15.59 16.9765 21.4549 15.0725 27.4135C15.5136 27.4603 15.8638 27.5272 16.2141 27.5294C18.076 27.5406 19.9445 27.632 21.7998 27.5138C25.6056 27.2708 29.2806 26.4501 32.6453 24.5479C32.9224 24.3918 33.2327 24.0774 33.2992 23.7853C34.0484 20.4336 34.7533 17.0707 35.5002 13.5897ZM14.5383 57.233C14.4475 57.5274 14.3588 57.7906 14.2879 58.0559C13.3436 61.5882 12.3883 65.1161 11.4706 68.6551C11.2977 69.3241 10.9675 69.788 10.3912 70.1581C8.28324 71.5095 6.19747 72.8966 4.10505 74.2725C3.90999 74.3996 3.73267 74.5535 3.42457 74.7876C8.38742 76.1234 13.2018 77.419 18.189 78.7593C16.8613 76.1167 15.6001 73.6927 14.4342 71.2241C14.1859 70.6978 14.0972 69.9664 14.2369 69.4044C15.0193 66.2333 15.8927 63.0868 16.7327 59.9314C16.9078 59.2735 17.0696 58.6112 17.2381 57.9467C16.2783 57.6924 15.4272 57.4672 14.5383 57.233Z" fill="#751300"/>
<path d="M57.4662 52.9335C58.1534 52.9447 58.7252 53.5624 58.692 54.2537C58.6587 54.9249 58.1024 55.4467 57.4285 55.4378C56.7547 55.4289 56.2139 54.8892 56.2028 54.218C56.1917 53.5222 56.7813 52.9224 57.4662 52.9335Z" fill="#CC4517"/>
<path d="M16.2761 38.2757C16.9655 38.2801 17.4797 38.7908 17.493 39.4843C17.5063 40.1935 16.9389 40.7844 16.2539 40.7777C15.6111 40.771 15.0348 40.1979 15.0171 39.5445C14.9972 38.8443 15.5668 38.2712 16.2761 38.2757Z" fill="#CC4517"/>
<path d="M55.9656 40.4033C55.9545 41.0968 55.345 41.6766 54.6601 41.6432C53.9951 41.6119 53.4809 41.0544 53.4897 40.3721C53.4986 39.6562 54.0727 39.101 54.7753 39.1366C55.4314 39.1679 55.9745 39.7454 55.9656 40.4033Z" fill="#CC4517"/>
<path d="M63.5639 48.0834C63.5529 48.7635 63.0231 49.3054 62.3559 49.3188C61.6755 49.3322 61.0725 48.7279 61.0858 48.0433C61.0991 47.343 61.6865 46.7989 62.398 46.8301C63.0807 46.8591 63.575 47.3899 63.5639 48.0834Z" fill="#CC4517"/>
<path d="M22.7507 45.3381C22.7418 46.0361 22.1544 46.5891 21.4473 46.5624C20.7558 46.5356 20.2659 46.0138 20.2748 45.3158C20.2814 44.5955 20.8533 44.0425 21.5559 44.0759C22.2098 44.1049 22.7595 44.6847 22.7507 45.3381Z" fill="#CC4517"/>
<path d="M25.4726 35.9098C25.4947 36.6144 24.9317 37.2009 24.2335 37.2009C23.573 37.2009 23.0078 36.6546 22.9834 35.9945C22.959 35.3344 23.4843 34.7591 24.1493 34.7189C24.8652 34.6743 25.4504 35.2006 25.4726 35.9098Z" fill="#CC4517"/>
</g>
<defs>
<clipPath id="clip0_14_81">
<rect width="79" height="86" fill="white"/>
</clipPath>
</defs>
</svg>
