<svg width="86" height="73" viewBox="0 0 86 73" fill="none" xmlns="http://www.w3.org/2000/svg">
<g clip-path="url(#clip0_14_62)">
<path d="M1.00099e-05 31.355C0.973707 27.5165 3.91606 26.1836 7.44731 25.7091C8.88021 25.5172 10.3493 25.5889 11.8034 25.5446C12.0968 25.5361 12.3902 25.5425 12.8664 25.5425C8.92699 23.347 7.57912 19.9936 7.71518 15.9084C7.864 11.3613 11.3102 8.4403 15.8938 8.92959C19.9778 9.36406 22.3908 11.9687 22.5269 16.0497C22.6034 18.3296 22.1229 20.4555 20.8984 22.4C20.0799 23.6971 18.9786 24.6946 17.3862 25.475C23.4028 25.475 29.1939 25.475 35.1105 25.475C35.1105 25.1839 35.1105 24.8634 35.1105 24.5428C35.1105 18.4624 35.1084 12.3821 35.1105 6.30174C35.1126 2.40424 37.5065 0.0336877 41.4438 0.0336877C53.0282 0.0294697 64.6169 0.0821955 76.2014 -5.6821e-05C79.7284 -0.0253652 82.5857 2.51602 82.5432 6.30807C82.4433 15.5815 82.5134 24.8549 82.5092 34.1283C82.507 38.049 80.1493 40.3711 76.1801 40.3732C64.6765 40.3753 53.1728 40.3141 41.6713 40.4112C38.3292 40.4386 35.4273 38.5531 35.0595 34.7273C32.7188 34.7273 30.3653 34.5987 28.031 34.7653C25.905 34.9171 24.3509 36.7942 24.3339 38.9348C24.3042 42.5434 24.3233 46.1541 24.3212 49.7626C24.3212 49.9841 24.3318 50.2076 24.3148 50.4291C24.2574 51.1946 23.7812 51.6882 23.1243 51.6734C22.4652 51.6607 21.9996 51.1588 21.9954 50.3848C21.9847 47.2761 21.9847 44.1652 21.9932 41.0565C21.9954 40.0315 21.9231 38.9876 22.0847 37.9815C22.6204 34.6514 25.3544 32.3926 28.7794 32.3778C32.6975 32.3631 36.6157 32.3863 40.5339 32.3652C42.2155 32.3568 43.2806 30.9753 42.8299 29.4695C42.5621 28.5731 41.7733 27.9446 40.7933 27.8708C40.4318 27.8434 40.0662 27.8603 39.7026 27.8603C29.6829 27.8603 19.6632 27.8244 9.64344 27.8983C8.08297 27.9088 6.47148 28.2526 4.98543 28.7461C3.17835 29.3429 2.29606 30.7265 2.31307 32.7216C2.3641 38.4961 2.33858 44.2707 2.31732 50.0473C2.3152 50.4649 2.21528 50.9563 1.97717 51.2811C1.51583 51.9117 0.839771 51.7873 -0.00424194 51.0154C1.00099e-05 44.4626 1.00099e-05 37.9077 1.00099e-05 31.355ZM37.4874 34.6872C37.5596 36.7752 39.0096 38.0596 41.2355 38.0596C52.9623 38.0638 64.6892 38.0638 76.4161 38.0596C78.8163 38.0596 80.1982 36.6824 80.2003 34.2675C80.211 24.8823 80.211 15.4992 80.2003 6.11403C80.1982 3.71184 78.7972 2.35363 76.3842 2.35152C64.685 2.34941 52.9857 2.34941 41.2865 2.35152C38.8161 2.35152 37.447 3.71184 37.4448 6.16465C37.4427 12.3294 37.4427 18.492 37.4427 24.6567C37.4427 24.9266 37.4427 25.1945 37.4427 25.5488C38.5588 25.5488 39.5878 25.5277 40.6147 25.553C43.27 25.6163 45.2876 27.6199 45.2663 30.1507C45.245 32.7026 43.219 34.6619 40.5636 34.6872C39.5623 34.6957 38.5567 34.6872 37.4874 34.6872ZM20.2053 16.6634C20.2414 13.4535 18.8277 11.6503 15.9682 11.2538C13.2491 10.8762 10.953 12.0531 10.3323 14.3266C9.59242 17.0388 9.98997 19.6287 11.7843 21.8748C13.6148 24.1653 16.5316 24.1589 18.4152 21.9128C19.6823 20.3943 20.1798 18.6037 20.2053 16.6634Z" fill="#751300"/>
<path d="M41.2907 58.1777C38.7544 56.1615 37.8296 53.6327 37.9444 50.6548C38.089 46.9007 40.874 44.45 44.671 44.7516C48.5446 45.0574 50.8257 47.797 50.4877 51.7409C50.2538 54.4869 49.4545 56.0708 47.1967 58.1672C48.2023 58.3443 49.1696 58.4202 50.0753 58.6986C51.4784 59.1289 52.9262 59.5444 54.1975 60.2467C55.9515 61.2168 56.8082 62.8345 56.7763 64.8865C56.7423 67.0525 56.77 69.2185 56.7678 71.3845C56.7678 72.4369 56.3745 72.9895 55.6262 73.0042C54.8545 73.0169 54.4356 72.439 54.4356 71.3423C54.4335 69.2037 54.4016 67.0652 54.4463 64.9287C54.4739 63.6127 53.8893 62.7016 52.7986 62.0562C51.1191 61.0608 49.2206 60.8119 47.3413 60.5588C44.1183 60.1265 40.9187 60.35 37.7765 61.1936C37.1068 61.3729 36.4499 61.6365 35.8312 61.9487C34.5471 62.5961 33.9051 63.6253 33.9412 65.108C33.9944 67.2444 33.9582 69.383 33.9519 71.5216C33.9497 72.4917 33.5118 73.0295 32.7719 73.0084C32.064 72.9874 31.6409 72.4706 31.6367 71.5427C31.626 69.2649 31.6282 66.9893 31.6345 64.7115C31.6409 62.5898 32.6933 61.084 34.4876 60.0379C36.2373 59.0192 38.1911 58.6649 40.1555 58.3528C40.4871 58.2937 40.8166 58.2473 41.2907 58.1777ZM40.2575 51.2263C40.2618 52.768 40.6423 54.1937 41.6458 55.398C43.1084 57.1548 45.3152 57.1844 46.746 55.4043C48.1831 53.618 48.5254 51.5638 47.8855 49.3725C47.5687 48.2821 46.7885 47.5925 45.7064 47.2571C42.6025 46.2954 40.2511 48.0122 40.2575 51.2263Z" fill="#CC4516"/>
<path d="M76.4522 58.1333C77.9022 58.4328 79.3159 58.6458 80.6787 59.0318C81.6333 59.3017 82.5814 59.7088 83.4255 60.2255C85.139 61.2758 86.0276 62.8301 86 64.8801C85.9681 67.0735 85.9958 69.2669 85.9915 71.4603C85.9894 72.4389 85.5791 72.9851 84.8541 72.9999C84.1015 73.0168 83.6614 72.4452 83.6593 71.4245C83.6551 69.2859 83.6168 67.1473 83.6721 65.0109C83.7082 63.5894 83.081 62.6403 81.8799 61.9697C80.2301 61.0459 78.3911 60.797 76.5692 60.5524C73.3462 60.12 70.1487 60.3436 67.0044 61.183C66.3879 61.3475 65.782 61.5816 65.2058 61.8579C63.8197 62.5222 63.1117 63.5831 63.1628 65.1754C63.2287 67.2844 63.1819 69.3956 63.1776 71.5046C63.1755 72.4811 62.7482 73.0147 62.0062 72.9999C61.2983 72.9851 60.8688 72.4642 60.8646 71.5405C60.8518 69.2648 60.8561 66.9871 60.8625 64.7114C60.8688 62.5918 61.9148 61.0818 63.7091 60.0336C65.4567 59.0128 67.4105 58.6585 69.3749 58.3463C69.7023 58.2936 70.0318 58.2472 70.2869 58.2093C69.917 57.7853 69.5237 57.3699 69.1687 56.9249C67.1341 54.3814 66.6132 51.5257 67.6146 48.4676C68.4458 45.9326 70.963 44.5195 73.8883 44.7494C77.7618 45.0531 80.043 47.7927 79.7071 51.7345C79.4733 54.4974 78.6739 56.0834 76.4522 58.1333ZM69.479 51.2537C69.4875 52.8165 69.9489 54.2527 70.7759 55.2925C72.2726 57.1737 74.5686 57.2201 76.0377 55.322C77.3962 53.5652 77.7278 51.5595 77.1262 49.4272C76.8073 48.2989 76.0271 47.5586 74.9024 47.2549C72.5213 46.6075 69.3898 47.2697 69.479 51.2537Z" fill="#CC4516"/>
<path d="M5.89746 43.6021C5.89746 41.3855 5.88896 39.1689 5.90171 36.9523C5.90809 36.0096 6.51399 35.4064 7.26872 35.5815C7.97454 35.7439 8.23816 36.2374 8.23604 36.9376C8.22753 41.3982 8.23604 45.8609 8.22753 50.3215C8.22541 51.1482 7.75982 51.6692 7.07738 51.6734C6.39494 51.6776 5.90809 51.1567 5.90384 50.3363C5.88896 48.0922 5.89746 45.8461 5.89746 43.6021Z" fill="#751300"/>
<path d="M50.9448 16.7352C52.2565 16.7352 53.479 16.731 54.7014 16.7352C56.1258 16.7415 56.5595 17.2477 56.3533 18.6523C55.8537 22.0605 53.0942 24.4922 49.7585 24.4627C46.4271 24.4331 43.7314 22.0394 43.2317 18.6671C42.6939 15.0416 45.7723 11.4457 49.48 11.3656C50.5005 11.3445 50.9257 11.7241 50.9405 12.7343C50.9575 14.0314 50.9448 15.3306 50.9448 16.7352ZM48.6402 13.9112C46.6269 14.352 45.2876 16.3471 45.5363 18.4076C45.7935 20.5441 47.7133 22.206 49.869 22.1596C51.7909 22.1174 53.6299 20.6685 53.7702 19.0467C52.5945 19.0467 51.421 19.0509 50.2475 19.0467C48.974 19.0425 48.6509 18.7324 48.6424 17.4797C48.6339 16.2965 48.6402 15.1154 48.6402 13.9112Z" fill="#751300"/>
<path d="M56.6998 14.8875C55.8324 14.8875 54.965 14.9044 54.0976 14.8833C53.2621 14.8643 52.8433 14.4889 52.8284 13.66C52.7986 11.9117 52.7965 10.1633 52.8305 8.41488C52.8475 7.57337 53.3259 7.19797 54.1997 7.20218C57.5481 7.21484 60.6095 10.2729 60.5882 13.5841C60.5818 14.4066 60.146 14.8643 59.2999 14.8833C58.4346 14.9044 57.5672 14.8896 56.6998 14.8875ZM57.9669 12.5528C57.7373 11.1714 56.4022 9.88909 55.1861 9.8216C55.1861 10.7201 55.1861 11.6185 55.1861 12.5528C56.1513 12.5528 57.0548 12.5528 57.9669 12.5528Z" fill="#751300"/>
<path d="M65.0676 31.8485C67.723 31.8485 70.3783 31.8421 73.0315 31.8506C73.9521 31.8527 74.4432 32.2829 74.4241 33.0295C74.4071 33.7234 73.9138 34.1536 73.0507 34.16C71.0395 34.1747 69.0262 34.1663 67.015 34.1663C63.7453 34.1663 60.4755 34.1895 57.2058 34.1389C56.7423 34.1325 56.1237 33.8879 55.8579 33.5399C55.2796 32.7912 55.9472 31.859 57.0208 31.8527C59.7017 31.84 62.3847 31.8506 65.0676 31.8485Z" fill="#751300"/>
<path d="M65.1144 26.1372C67.774 26.1372 70.4336 26.1266 73.0911 26.1414C74.1052 26.1477 74.7557 26.926 74.3241 27.681C74.1201 28.0353 73.5503 28.3896 73.1442 28.3918C67.7421 28.4382 62.34 28.4297 56.9379 28.4128C56.1492 28.4107 55.6644 27.913 55.6729 27.2592C55.6815 26.6012 56.1726 26.1456 56.9698 26.1414C59.6847 26.1266 62.3995 26.1372 65.1144 26.1372Z" fill="#751300"/>
<path d="M70.0637 16.9945C69.1113 16.9945 68.1609 17.0071 67.2085 16.9902C66.2965 16.9734 65.7947 16.5284 65.8139 15.7923C65.833 15.0795 66.3007 14.6872 67.1936 14.683C69.1538 14.6724 71.1118 14.6724 73.072 14.683C73.9521 14.6872 74.4198 15.1005 74.4241 15.8197C74.4283 16.5263 73.9436 16.9713 73.0868 16.9881C72.0791 17.0113 71.0714 16.9945 70.0637 16.9945Z" fill="#751300"/>
<path d="M70.0382 22.6952C69.0581 22.6952 68.078 22.7078 67.1001 22.6909C66.288 22.6783 65.8287 22.2607 65.816 21.5732C65.8032 20.894 66.2688 20.4069 67.0533 20.3963C69.0964 20.3731 71.1394 20.3731 73.1825 20.3963C73.9691 20.4047 74.4368 20.8877 74.4262 21.5668C74.4155 22.2544 73.9563 22.6762 73.1463 22.6888C72.1089 22.7078 71.0735 22.6952 70.0382 22.6952Z" fill="#751300"/>
<path d="M70.053 11.2453C69.0751 11.2453 68.095 11.2622 67.1171 11.2411C66.2794 11.2221 65.8372 10.8256 65.816 10.1423C65.7947 9.42522 66.2582 8.97388 67.1234 8.96545C69.1367 8.94647 71.15 8.94436 73.1634 8.96756C73.9755 8.97599 74.4283 9.42522 74.4262 10.1085C74.4241 10.794 73.9755 11.22 73.157 11.2411C72.1237 11.2643 71.0884 11.2453 70.053 11.2453Z" fill="#751300"/>
</g>
<defs>
<clipPath id="clip0_14_62">
<rect width="86" height="73" fill="white"/>
</clipPath>
</defs>
</svg>
