<svg width="32" height="32" viewBox="0 0 32 32" fill="none" xmlns="http://www.w3.org/2000/svg">
<circle cx="16" cy="16" r="15.25" stroke="#CC4516" stroke-width="1.5"/>
<path d="M24 11.539C23.4113 11.8003 22.7787 11.9763 22.1147 12.0556C22.7927 11.6497 23.3133 11.0065 23.558 10.24C22.924 10.6159 22.2213 10.8892 21.4733 11.0365C20.8753 10.3986 20.0213 10 19.0773 10C16.958 10 15.4007 11.9769 15.8793 14.0292C13.152 13.8925 10.7333 12.5861 9.114 10.6005C8.254 12.0756 8.668 14.0052 10.1293 14.9823C9.592 14.965 9.08533 14.8177 8.64333 14.5717C8.60733 16.0921 9.69733 17.5145 11.276 17.8311C10.814 17.9564 10.308 17.9857 9.79333 17.887C10.2107 19.1908 11.4227 20.1393 12.86 20.1659C11.48 21.2477 9.74133 21.7309 8 21.5256C9.45267 22.4568 11.1787 23 13.032 23C19.1267 23 22.57 17.8537 22.362 13.238C23.0033 12.7748 23.56 12.1969 24 11.539V11.539Z" fill="#CC4516"/>
</svg>
