<svg width="88" height="88" viewBox="0 0 88 88" fill="none" xmlns="http://www.w3.org/2000/svg">
<g clip-path="url(#clip0_14_54)">
<path d="M51.4124 88C49.6429 87.1052 48.773 85.6941 48.7316 83.6799C48.5624 75.2171 45.4368 67.726 41.0457 60.6782C39.5557 58.2876 38.4141 55.8024 38.1484 52.9624C37.7331 48.5517 38.9279 44.6376 41.709 41.2004C41.8153 41.0684 41.9235 40.9344 42.0908 40.7274C40.5516 39.9903 39.4652 38.8788 39.0558 37.2114C38.6444 35.5362 39.0715 34.0423 40.1068 32.645C38.1878 30.6643 36.6742 28.4097 35.7511 25.8279C35.3063 24.5843 35.0406 23.2323 34.9618 21.9118C34.8792 20.5086 35.5405 19.33 36.9222 18.7723C38.2862 18.2224 39.4888 18.6106 40.5516 19.5842C42.0751 20.9796 42.9588 22.7612 43.6654 24.6572C43.754 24.8976 43.8445 25.1361 44.0197 25.5992C44.183 25.1834 44.2854 24.9449 44.372 24.7025C45.0609 22.8007 45.9486 21.023 47.4602 19.6158C48.5407 18.6106 49.765 18.2066 51.1585 18.7861C52.5343 19.3576 53.0775 20.5401 53.1189 21.9512C53.1877 24.2729 52.2883 26.3304 51.1486 28.2599C50.2393 29.8011 49.1351 31.228 48.1687 32.6312C48.5584 33.7447 48.9659 34.9134 49.3516 36.0171C50.7215 35.8654 52.2174 35.554 53.7093 35.5618C59.2775 35.5894 63.7296 37.9071 66.8808 42.5091C69.4454 46.2537 72.1793 49.8465 75.3954 53.0511C78.1588 55.8043 81.3788 57.9329 84.8213 59.7184C86.1479 60.4063 87.3131 61.1808 87.998 62.5466C87.998 63.463 87.998 64.3814 87.998 65.2979C87.2501 66.0902 86.5986 67.0165 85.7326 67.6471C84.0261 68.8907 82.1996 69.9688 80.4242 71.1178C79.57 71.6716 78.7197 72.2333 77.8852 72.7792C79.694 77.5053 77.6707 81.4746 74.9132 83.406C71.39 85.8715 67.6366 85.4754 63.4049 82.1505C60.3285 84.0958 57.2443 86.0489 54.1601 88C53.2448 88 52.3296 88 51.4124 88ZM50.2452 74.2534C50.5542 74.0602 50.7983 73.9124 51.0365 73.7587C58.2697 69.0858 65.501 64.411 72.7343 59.7381C72.9981 59.5687 73.2598 59.3873 73.5433 59.2573C74.2164 58.9498 74.7892 59.1508 75.2005 59.7263C75.6237 60.3176 75.545 60.9305 75.0509 61.4469C74.8187 61.6893 74.5057 61.8588 74.2184 62.046C66.6288 66.9593 59.0374 71.8647 51.4596 76.7977C51.188 76.9732 50.8928 77.4048 50.9144 77.6925C51.0857 79.8604 51.3199 82.0244 51.5639 84.1884C51.686 85.2743 52.6091 85.7197 53.5794 85.1975C53.7546 85.1029 53.9199 84.9866 54.0872 84.8762C64.1548 78.3705 74.2223 71.8628 84.2879 65.355C85.8507 64.344 85.7975 63.3369 84.1462 62.4756C83.9946 62.3968 83.8411 62.318 83.6895 62.2372C79.4637 60.0022 75.5765 57.3199 72.2915 53.8C69.4493 50.757 66.9575 47.45 64.6055 44.0207C61.043 38.8275 54.3136 36.9907 48.6136 39.5489C42.8722 42.1247 39.7781 48.4038 41.2937 54.541C41.5791 55.694 42.0003 56.8666 42.6144 57.8718C45.7596 63.0137 48.5112 68.331 50.2452 74.2534ZM75.4859 74.3066C72.2364 76.4075 69.0636 78.4572 65.8849 80.5128C67.4555 82.3535 70.526 82.7517 72.8367 81.4608C75.2911 80.0871 76.4149 77.1761 75.4859 74.3066ZM41.6421 36.0053C41.6657 37.3277 42.7541 38.3565 44.0984 38.3289C45.3876 38.3013 46.4249 37.2469 46.4249 35.96C46.4249 34.6336 45.3542 33.5792 44.0157 33.589C42.699 33.5989 41.6184 34.6986 41.6421 36.0053ZM42.1971 30.6466C42.1066 29.8917 42.0711 29.2926 41.957 28.7092C41.4748 26.2477 40.7229 23.8964 39.0184 21.9709C38.7527 21.6714 38.3905 21.4605 38.0599 21.1984C36.9872 22.9406 39.4553 28.5259 42.1971 30.6466ZM50.3397 21.3501C48.1372 21.2949 45.4722 28.5161 46.0627 30.5914C48.2061 28.4038 49.6784 25.8791 50.3259 22.9012C50.4283 22.4242 50.3397 21.9079 50.3397 21.3501Z" fill="#751300"/>
<path d="M33.8931 88C30.8246 86.0588 27.7581 84.1155 24.662 82.1565C20.9932 85.4517 17.0115 86.1199 12.8565 83.1478C9.65618 80.8577 8.79605 77.1998 10.1561 72.7457C8.11111 71.4213 6.05036 70.0871 3.98961 68.7528C3.29286 68.3015 2.61972 67.8088 1.89541 67.4087C-0.728258 65.9582 -0.639687 61.5652 2.23985 60.2151C5.46579 58.7055 8.46736 56.7898 11.1402 54.4327C14.9429 51.0803 18.0724 47.1327 20.8574 42.9072C23.3591 39.1114 26.7897 36.6301 31.2694 35.8319C32.9601 35.5303 34.7355 35.6545 36.4695 35.6959C37.3513 35.7176 37.8729 36.4251 37.7882 37.174C37.6957 37.9781 37.0108 38.4827 36.1133 38.3881C30.4742 37.785 26.2189 39.9628 22.991 44.6041C20.9047 47.6057 18.6038 50.4713 16.2321 53.2581C12.9786 57.0815 8.86691 59.8407 4.46986 62.1879C4.31831 62.2687 4.16479 62.3456 4.01126 62.4205C3.39127 62.726 2.71813 63.0058 2.66696 63.8297C2.61381 64.6988 3.3027 65.0397 3.90498 65.428C7.24705 67.5841 10.5872 69.7402 13.9273 71.8983C20.6311 76.2302 27.3329 80.5641 34.0368 84.8979C34.1804 84.9906 34.3222 85.0911 34.4717 85.1719C35.4441 85.702 36.3691 85.2744 36.4951 84.1845C36.749 81.9949 36.9813 79.8013 37.1505 77.6039C37.1722 77.3279 36.8336 76.918 36.5541 76.7367C29.5728 72.2038 22.5757 67.6925 15.5806 63.1773C14.9074 62.7437 14.2343 62.3082 13.5631 61.8706C12.5908 61.236 12.333 60.4851 12.825 59.7382C13.3132 58.9991 14.0808 58.9361 15.0767 59.5785C19.5958 62.4934 24.1129 65.4142 28.63 68.333C31.6572 70.2881 34.6823 72.2432 37.8118 74.2633C37.9536 73.7804 38.05 73.3488 38.2035 72.9389C38.8885 71.1198 39.5655 69.2968 40.2918 67.4934C40.6678 66.5593 41.4413 66.2341 42.2089 66.5829C42.9332 66.912 43.2166 67.6945 42.8151 68.5538C40.5753 73.3488 39.5262 78.4218 39.3235 83.678C39.2447 85.6823 38.4417 87.123 36.6388 87.9961C35.7255 88 34.8083 88 33.8931 88ZM22.1742 80.5109C18.9896 78.4533 15.8128 76.4016 12.6184 74.3362C11.5732 76.8648 12.6636 79.9019 15.0531 81.3583C17.3658 82.7675 20.5346 82.4107 22.1742 80.5109Z" fill="#751300"/>
<path d="M40.2505 0C41.2878 0.356722 42.3467 0.664173 43.3525 1.09579C43.7835 1.28105 44.0669 1.36185 44.5059 1.11155C47.3401 -0.518331 50.7216 0.145842 52.6445 2.67049C54.5616 5.18725 54.2939 8.66776 51.9793 10.9539C49.7197 13.1849 47.4425 15.3982 45.1652 17.6134C44.2874 18.4668 43.6005 18.4668 42.7246 17.6154C40.408 15.3588 38.0933 13.1041 35.7905 10.8337C33.9817 9.0501 33.4601 6.35202 34.4442 4.01263C35.4126 1.70872 37.6623 0.216792 40.1757 0.212851C40.2013 0.13993 40.2269 0.0709503 40.2505 0ZM43.9449 14.9666C46.1001 12.8538 48.2081 10.8396 50.2531 8.76236C51.4104 7.58774 51.4341 5.65434 50.4303 4.34373C49.4147 3.0213 47.4799 2.42413 46.1513 3.38985C44.5472 4.55461 43.2954 4.47972 41.709 3.37408C40.3588 2.43399 38.4634 3.03115 37.432 4.36738C36.44 5.65237 36.4558 7.57197 37.5796 8.71111C39.6482 10.8041 41.7759 12.84 43.9449 14.9666Z" fill="#CC4517"/>
<path d="M66.3907 19.8778C65.1625 19.8778 63.9324 19.8897 62.7042 19.8739C61.5095 19.8601 61.0272 19.3891 61.0056 18.2223C60.9623 15.8475 60.9131 13.4726 60.8954 11.0958C60.8757 8.52383 62.5979 6.47219 65.1172 6.01889C67.4614 5.5991 69.7898 7.02402 70.6736 9.35553C70.7996 9.68663 71.1558 10.0394 71.4884 10.1655C73.8956 11.08 75.2261 13.3603 74.7754 15.9007C74.3621 18.2282 72.2915 19.9173 69.8194 19.9311C68.6758 19.937 67.5323 19.933 66.3907 19.933C66.3907 19.9153 66.3907 19.8956 66.3907 19.8778ZM63.6371 17.1699C65.9282 17.1699 68.0125 17.2133 70.093 17.1541C71.331 17.1187 72.2147 15.9677 72.0986 14.7241C71.9962 13.6362 71.2936 12.8794 70.0241 12.6685C68.9514 12.4892 68.2841 12.0083 68.2074 10.8652C68.1936 10.6681 68.1227 10.473 68.0578 10.2838C67.7015 9.22742 66.6643 8.57901 65.5798 8.7288C64.5248 8.87464 63.6726 9.72998 63.6489 10.8238C63.6056 12.8853 63.6371 14.9448 63.6371 17.1699Z" fill="#CC4517"/>
<path d="M21.4577 19.933C20.3142 19.933 19.1726 19.9389 18.0291 19.931C15.5767 19.9172 13.4962 18.2006 13.1026 15.8711C12.6774 13.3524 13.9765 11.0564 16.3561 10.2247C16.8698 10.0453 17.106 9.76939 17.2871 9.26683C18.098 7.02993 20.4756 5.63063 22.7253 6.00706C25.1935 6.42094 26.9826 8.45879 26.9865 10.9657C26.9905 13.4253 26.9275 15.8869 26.8763 18.3465C26.8547 19.3595 26.3528 19.8502 25.3155 19.87C24.0302 19.8936 22.743 19.8759 21.4577 19.8759C21.4577 19.8956 21.4577 19.9153 21.4577 19.933ZM24.2546 17.162C24.2546 15.0591 24.2625 13.1159 24.2526 11.1707C24.2467 9.81867 23.426 8.84704 22.2136 8.72288C21.0405 8.60266 20.0013 9.3299 19.7729 10.6366C19.5545 11.888 18.9935 12.6094 17.6846 12.6961C17.3874 12.7158 17.0804 12.8794 16.8166 13.039C15.992 13.5376 15.618 14.5231 15.8443 15.5006C16.051 16.3894 16.795 17.1265 17.7024 17.1462C19.8123 17.1936 21.9242 17.162 24.2546 17.162Z" fill="#CC4517"/>
<path d="M14.0237 31.9612C14.5119 32.2312 14.8642 32.3633 15.1437 32.5879C17.1493 34.2178 19.3104 34.478 21.6251 33.3428C23.4949 32.4244 25.3116 31.3877 27.2228 30.5639C30.614 29.1015 33.9699 29.3794 37.2194 31.1C37.7981 31.4054 38.2429 31.8824 38.0658 32.5328C37.9477 32.9663 37.5639 33.4039 37.1801 33.664C36.9439 33.8256 36.4164 33.7803 36.1369 33.6207C32.4858 31.5395 29.0611 32.4204 25.6383 34.2671C23.9909 35.1559 22.2864 36.0349 20.5012 36.5552C17.7516 37.3574 15.3365 36.3227 13.2187 34.5371C12.7286 34.1232 12.5574 33.5261 12.8861 32.992C13.14 32.5781 13.6261 32.3061 14.0237 31.9612Z" fill="#751300"/>
<path d="M55.7347 29.6551C59.5038 29.6334 62.0881 30.9716 64.6429 32.4064C65.2649 32.7553 65.8927 33.0962 66.5383 33.3997C68.8392 34.4778 70.9787 34.1999 72.9292 32.568C73.4646 32.1206 74.0924 31.8763 74.6337 32.3512C74.9841 32.6587 75.1907 33.2381 75.2557 33.7229C75.2931 34.0008 74.9841 34.4147 74.7183 34.6315C72.4135 36.5077 69.8469 37.4045 66.9084 36.4191C65.7274 36.0229 64.6094 35.4277 63.4738 34.9015C62.0507 34.2413 60.673 33.4726 59.2165 32.907C56.9983 32.0458 54.786 32.2901 52.6465 33.2815C52.4123 33.3899 52.1918 33.5259 51.9576 33.6283C51.2116 33.9555 50.4617 33.7289 50.1074 33.0765C49.7492 32.4163 49.948 31.6516 50.6605 31.2279C52.4438 30.1656 54.3825 29.6394 55.7347 29.6551Z" fill="#751300"/>
</g>
<defs>
<clipPath id="clip0_14_54">
<rect width="88" height="88" fill="white"/>
</clipPath>
</defs>
</svg>
