<svg width="32" height="32" viewBox="0 0 32 32" fill="none" xmlns="http://www.w3.org/2000/svg">
<circle cx="16" cy="16" r="15.25" stroke="#CC4516" stroke-width="1.5"/>
<path d="M8 24L9.20066 19.6345C8.45977 18.3567 8.07046 16.9082 8.07117 15.4228C8.07331 10.779 11.8703 7 16.5356 7C18.7995 7.00071 20.9247 7.87833 22.5232 9.47067C24.121 11.063 25.0007 13.1795 25 15.4306C24.9979 20.0751 21.2009 23.8541 16.5356 23.8541C15.1193 23.8534 13.7236 23.4999 12.4874 22.8284L8 24ZM12.6952 21.3034C13.888 22.0082 15.0268 22.4303 16.5327 22.431C20.4102 22.431 23.5687 19.2903 23.5709 15.4292C23.5723 11.5602 20.4287 8.42375 16.5384 8.42233C12.6582 8.42233 9.50172 11.5631 9.50029 15.4235C9.49958 16.9995 9.96362 18.1796 10.7429 19.4142L10.0319 21.9982L12.6952 21.3034ZM20.7995 17.433C20.7468 17.3452 20.6059 17.2928 20.3938 17.1873C20.1824 17.0817 19.1426 16.5724 18.9483 16.5023C18.7547 16.4322 18.6138 16.3967 18.4722 16.6078C18.3312 16.8182 17.9256 17.2928 17.8024 17.433C17.6793 17.5733 17.5555 17.591 17.3441 17.4855C17.1327 17.3799 16.4509 17.1582 15.6431 16.4407C15.0147 15.8825 14.5898 15.1933 14.4666 14.9822C14.3435 14.7718 14.4538 14.6578 14.5592 14.553C14.6545 14.4587 14.7705 14.3072 14.8766 14.1839C14.984 14.0621 15.0189 13.9742 15.0901 13.8333C15.1606 13.693 15.1257 13.5698 15.0723 13.4643C15.0189 13.3594 14.5962 12.3231 14.4204 11.9017C14.2481 11.4915 14.0738 11.5468 13.9442 11.5404L13.5386 11.5333C13.3976 11.5333 13.1685 11.5857 12.9749 11.7968C12.7813 12.0079 12.2347 12.5165 12.2347 13.5528C12.2347 14.5891 12.9927 15.59 13.098 15.7302C13.2041 15.8705 14.589 17.9969 16.7107 18.9085C17.2153 19.1252 17.6096 19.2549 17.9163 19.3519C18.423 19.512 18.8842 19.4893 19.2486 19.4355C19.655 19.3753 20.4998 18.9262 20.6763 18.4346C20.8528 17.9423 20.8528 17.5209 20.7995 17.433Z" fill="#CC4516"/>
</svg>
